<svg width="40" height="40" viewBox="0 0 40 40" fill="none" xmlns="http://www.w3.org/2000/svg">
<path d="M9.35556 36.2223C7.51801 36.2225 5.75407 35.5002 4.44445 34.2112L4.3 34.0667C3.64201 33.4247 3.11918 32.6574 2.76234 31.8102C2.4055 30.9629 2.22185 30.0528 2.22223 29.1334C2.2199 28.1381 2.41512 27.1522 2.79658 26.2329C3.17804 25.3136 3.73815 24.4791 4.44445 23.7779L21.6667 6.74453C23.4165 4.9226 25.812 3.86092 28.3371 3.78818C30.8622 3.71544 33.3148 4.63746 35.1667 6.35564C36.0019 7.18874 36.6629 8.17976 37.1112 9.27092C37.5595 10.3621 37.7861 11.5316 37.7778 12.7112C37.7679 14.0286 37.4978 15.3312 36.9829 16.5439C36.4681 17.7566 35.7187 18.8557 34.7778 19.7779L19.3 35.1112C19.2038 35.2406 19.0806 35.3475 18.9389 35.4246C18.7972 35.5016 18.6404 35.5468 18.4795 35.5571C18.3185 35.5675 18.1573 35.5426 18.0069 35.4844C17.8565 35.4261 17.7206 35.3358 17.6087 35.2198C17.4967 35.1037 17.4113 34.9647 17.3585 34.8123C17.3057 34.6599 17.2866 34.4979 17.3027 34.3374C17.3188 34.177 17.3697 34.0219 17.4517 33.8831C17.5337 33.7442 17.645 33.6249 17.7778 33.5334L33.2111 18.2001C33.9441 17.4846 34.5285 16.6314 34.9308 15.6895C35.3331 14.7475 35.5455 13.7354 35.5556 12.7112C35.5636 11.8248 35.3948 10.9457 35.059 10.1253C34.7233 9.30496 34.2272 8.55979 33.6 7.93341C32.1643 6.62549 30.2724 5.93344 28.3316 6.00617C26.3908 6.0789 24.5561 6.91059 23.2222 8.3223L6.05556 25.3556C5.54968 25.8469 5.14668 26.4339 4.87007 27.0825C4.59346 27.7311 4.44877 28.4283 4.44445 29.1334C4.44208 29.7526 4.56264 30.366 4.79915 30.9382C5.03565 31.5104 5.3834 32.03 5.82223 32.4667L5.96667 32.6112C6.96084 33.5267 8.27473 34.0152 9.6255 33.9715C10.9763 33.9279 12.2559 33.3556 13.1889 32.3779L28.0222 17.7112C28.3028 17.4276 28.5239 17.0908 28.6727 16.7207C28.8215 16.3506 28.895 15.9545 28.8889 15.5556C28.8913 15.2092 28.8248 14.8657 28.6932 14.5452C28.5616 14.2248 28.3675 13.9337 28.1222 13.689C27.5611 13.1744 26.8202 12.9012 26.0593 12.9282C25.2985 12.9552 24.5788 13.2804 24.0556 13.8334L13.8333 23.9667C13.6241 24.1745 13.3409 24.2906 13.0461 24.2896C12.7512 24.2885 12.4689 24.1704 12.2611 23.9612C12.0534 23.752 11.9372 23.4688 11.9383 23.1739C11.9393 22.8791 12.0574 22.5967 12.2667 22.389L22.5333 12.2223C23.4744 11.2582 24.7568 10.7027 26.1038 10.6757C27.4507 10.6487 28.7544 11.1523 29.7333 12.0779C30.1836 12.5362 30.5374 13.0801 30.7741 13.6774C31.0107 14.2747 31.1253 14.9133 31.1111 15.5556C31.1099 16.2473 30.9708 16.9318 30.7017 17.5691C30.4327 18.2063 30.0393 18.7835 29.5445 19.2667L14.7556 33.9779C13.3221 35.409 11.3812 36.2158 9.35556 36.2223Z" fill="#20211C"/>
</svg>
