<svg width="170" height="170" viewBox="0 0 170 170" fill="none" xmlns="http://www.w3.org/2000/svg">
<path d="M53.3588 86.7636C53.2809 100.824 63.5942 109.204 80.0488 105.393V68.1273C63.3888 63.0556 53.4296 73.3194 53.3588 86.7636ZM80.5517 14.2444H103.211V121.507C81.4938 125.056 60.683 127.309 45.808 118.993C26.6476 108.276 25.1034 74.2331 40.2688 59.0677C47.9542 51.3823 63.4384 45.9636 80.0488 49.4981V15.7602C80.0063 15.0448 79.9638 14.3294 80.5517 14.2444V14.2444ZM139.974 37.9169H117.314V14.2444H139.974V37.9169V37.9169Z" fill="black"/>
<path d="M139.974 49.8945C139.952 66.5829 139.952 78.5679 139.952 98.8475C138.989 118.773 139.216 134.632 131.913 144.167C130.475 146.051 127.422 148.785 124.865 150.712C122.719 152.327 118.625 155.606 116.308 155.748C113.964 155.897 107.95 152.497 105.23 151.215C101.653 149.536 98.352 147.297 94.6545 146.185C103.282 140.845 111.456 136.835 114.8 126.04C117.704 116.648 117.314 103.041 117.314 89.7808C117.314 76.6837 117.378 61.4616 117.378 49.9016L139.974 49.8945V49.8945Z" fill="black"/>
</svg>
