<svg width="170" height="170" viewBox="0 0 170 170" fill="none" xmlns="http://www.w3.org/2000/svg">
<path d="M57.2757 131.828L99.7474 32.6328C100.461 30.976 101.78 29.654 103.436 28.9366C105.091 28.2191 106.958 28.1603 108.655 28.7721C110.352 29.3839 111.752 30.6202 112.568 32.2288C113.385 33.8374 113.557 35.697 113.05 37.4282L112.767 38.2074L70.2949 137.402C69.581 139.059 68.2619 140.381 66.6066 141.099C64.9514 141.816 63.0847 141.875 61.3875 141.263C59.6904 140.651 58.2906 139.415 57.4739 137.806C56.6571 136.198 56.4849 134.338 56.9924 132.607L57.2757 131.828L99.7474 32.6328L57.2757 131.821V131.828ZM16.242 79.992L44.5753 51.6587C45.85 50.3883 47.5605 49.6507 49.3593 49.5958C51.1581 49.5409 52.9104 50.1727 54.2602 51.3629C55.61 52.5532 56.4562 54.2126 56.6269 56.0041C56.7976 57.7956 56.2799 59.585 55.1791 61.0087L54.5911 61.6745L31.2657 84.9999L54.5911 108.325C55.875 109.597 56.6243 111.311 56.6856 113.118C56.7468 114.924 56.1155 116.685 54.9208 118.041C53.726 119.397 52.0583 120.244 50.2588 120.411C48.4594 120.577 46.6643 120.05 45.2411 118.936L44.5753 118.341L16.242 90.0078C15.0224 88.7881 14.2898 87.1653 14.1815 85.4439C14.0733 83.7225 14.5969 82.0207 15.6541 80.6578L16.242 79.992L44.5753 51.6587L16.242 79.992ZM115.409 51.6516C116.628 50.432 118.251 49.6994 119.973 49.5911C121.694 49.4829 123.396 50.0065 124.759 51.0637L125.417 51.6516L153.758 79.992C154.977 81.2117 155.71 82.8345 155.818 84.5559C155.927 86.2774 155.403 87.9791 154.346 89.342L153.758 90.0149L125.417 118.313C124.143 119.583 122.432 120.321 120.633 120.376C118.835 120.431 117.082 119.799 115.733 118.609C114.383 117.418 113.536 115.759 113.366 113.967C113.195 112.176 113.713 110.387 114.814 108.963L115.409 108.29L138.72 84.9999L115.394 61.6674C114.067 60.3391 113.321 58.5377 113.321 56.6595C113.321 54.7813 114.067 52.9799 115.394 51.6516H115.409Z" fill="black"/>
</svg>
