<svg width="170" height="170" viewBox="0 0 170 170" fill="none" xmlns="http://www.w3.org/2000/svg">
<path d="M136 110.5C124.95 110.5 115.6 117.3 112.2 127.5H76.5C76.5 121.55 74.8 116.45 72.25 112.2L132.6 50.15C135.15 50.15 137.7 51 140.25 51C152.15 51 161.5 41.65 161.5 29.75C161.5 17.85 152.15 8.5 140.25 8.5C128.35 8.5 119 17.85 119 29.75C119 32.3 119.85 35.7 120.7 38.25L61.2 99.45C56.1 95.2 49.3 93.5 42.5 93.5V57.8C52.7 54.4 59.5 45.05 59.5 34C59.5 19.55 48.45 8.5 34 8.5C19.55 8.5 8.5 19.55 8.5 34C8.5 45.05 15.3 54.4 25.5 57.8V97.75C15.3 103.7 8.5 114.75 8.5 126.65C8.5 145.35 23.8 160.65 42.5 160.65C55.25 160.65 66.3 153.85 71.4 143.65H111.35C114.75 153 124.1 160.65 135.15 160.65C148.75 160.65 160.65 149.6 160.65 135.15C161.5 121.55 149.6 110.5 136 110.5Z" fill="black"/>
</svg>
