<svg width="170" height="170" viewBox="0 0 170 170" fill="none" xmlns="http://www.w3.org/2000/svg">
<g clip-path="url(#clip0)">
<path d="M50.8034 146.317C44.3274 141.196 37.4105 136.33 32.709 129.439C22.7746 117.321 15.1087 103.291 9.88117 88.5171C6.72555 78.9439 5.64711 68.6483 1.57774 59.4099C-2.68289 52.7427 2.29492 45.4114 9.63149 43.2811C12.8987 42.6436 18.6521 39.573 11.7087 41.7883C5.48242 46.3252 4.90336 37.6392 11.2677 37.0867C15.6134 36.5077 17.2177 32.9377 15.7249 29.7555C11.0765 26.7114 27.0671 23.3645 19.0187 18.7958C10.6355 9.7486 30.7487 8.0061 25.7974 18.2699C24.6074 26.1855 39.8543 16.8302 36.3109 25.9624C39.9074 30.3345 49.7568 26.9611 49.5071 33.1024C54.7665 33.4636 56.5621 37.8624 61.4602 38.1917C66.5815 40.5186 75.7934 42.3142 77.5359 48.0411C72.4731 52.052 60.7696 39.7961 60.2171 50.862C61.7365 67.2139 61.354 84.0652 67.3305 99.6414C70.178 109.076 77.0418 116.519 83.2415 123.85C89.1649 131.07 97.1868 136.106 105.379 140.399C112.572 143.772 120.323 146.014 128.148 147.427C131.304 144.994 136.919 135.974 141.87 139.788C142.093 144.049 132.047 148.724 141.397 148.256C146.875 146.593 150.694 152.49 155.231 147.178C159.38 152.102 172.55 144.022 169.591 154.121C165.58 156.692 159.715 155.146 155.699 158.685C149.085 155.391 143.799 161.644 136.467 160.868C128.315 162.268 120.057 162.952 111.786 162.913C98.2546 161.835 84.4209 161.394 71.5274 156.687C64.2759 154.557 57.1943 150.434 50.8034 146.312V146.317ZM62.2305 151.268C69.3121 154.312 76.2609 157.548 84.033 158.546C96.3474 160.236 109.076 162.892 121.444 160.485C115.855 157.941 110.043 161.484 104.481 158.658C97.7871 160.098 90.6205 158.297 83.8099 157.415C76.0909 153.983 67.7343 151.603 60.4827 147.119C51.4621 143.825 65.1577 151.353 67.6227 151.991C73.2699 155.2 61.3965 150.328 59.739 149C55.0055 146.344 54.3999 146.896 59.2662 149.579C60.233 150.158 61.2052 150.769 62.2252 151.268H62.2305ZM48.7527 141.722C55.6165 144.266 48.7262 136.909 45.5705 137.323C44.1893 134.916 40.258 133.365 43.0259 132.095C38.0162 133.811 37.7984 125.508 35.4449 126.671C30.159 125.009 33.3996 119.117 27.1149 115.494C26.5359 111.674 20.8621 108.354 19.0346 102.574C18.2324 99.6414 12.6437 91.1467 16.0755 99.0305C19.008 106.638 24.1824 113.14 28.4696 119.643C31.8165 125.811 35.7477 132.287 41.8359 136.133C43.8812 138.099 45.8468 141.116 48.7527 141.722V141.722ZM28.969 120.004C29.1921 118.979 30.2121 122.246 28.969 120.004V120.004ZM56.9712 144.766C58.4905 144.102 54.7877 143.937 56.9712 144.766V144.766ZM60.7059 146.147C60.318 144.266 58.9899 147.172 60.7059 146.147V146.147ZM65.3809 148.086C67.5962 145.956 61.949 146.758 65.3809 148.086V148.086ZM73.3815 152.543C74.7362 150.551 69.0359 151.794 73.3815 152.543V152.543ZM58.023 141.833C61.4549 139.591 53.5393 141.807 58.023 141.833V141.833ZM61.508 143.576C61.423 142.386 60.2649 144.102 61.508 143.576V143.576ZM78.9968 154.504C81.8177 156.273 95.4337 158.376 86.9124 155.221C85.4993 155.524 71.113 151.151 78.9968 154.504V154.504ZM51.2443 132.866C50.968 131.676 46.8721 131.538 51.2443 132.866V132.866ZM59.3777 137.599C61.508 136.133 54.979 136.462 59.3777 137.599V137.599ZM66.2415 141.807C69.2855 140.67 61.2902 140.643 66.2415 141.807V141.807ZM47.924 129.243C51.2177 131.787 61.2318 129.577 52.9868 127.75C49.2255 125.731 40.7574 124.376 46.5109 128.94L47.924 129.243ZM70.8634 143.273C72.2446 140.92 65.1099 141.918 70.8634 143.273V143.273ZM63.888 137.711C71.9684 140.006 57.1093 132.621 61.8959 136.882L62.9743 137.355L63.888 137.711ZM77.8865 145.791C85.5206 145.876 70.9696 144.739 77.8865 145.791V145.791ZM44.9915 124.817C44.6887 123.404 43.1109 124.955 44.9915 124.817V124.817ZM90.8118 153.037C91.003 150.466 88.3202 154.976 90.8118 153.037V153.037ZM58.023 132.813C57.5502 131.458 55.643 132.76 58.023 132.813V132.813ZM45.7087 123.93C50.0809 123.68 39.7055 121.991 45.7087 123.93V123.93ZM31.0993 114.495C30.5734 112.391 26.3393 110.734 31.0993 114.495V114.495ZM69.4237 138.842C68.6215 137.902 69.0359 139.034 69.4237 138.842V138.842ZM93.2449 153.452C93.1918 152.07 91.9699 153.978 93.2449 153.452V153.452ZM67.3199 136.659C67.7343 134.831 63.5587 136.106 67.3199 136.659V136.659ZM49.5549 125.37C52.7902 125.035 44.3274 123.186 49.5549 125.37V125.37ZM79.6024 144.049C84.6652 142.03 74.6193 143.05 79.6024 144.049V144.049ZM63.973 133.45C69.838 134.199 56.9977 129.466 62.6715 133.036L63.973 133.45ZM84.3359 145.982C89.813 142.689 88.0174 153.648 93.6327 146.896C99.1684 142.859 88.8462 151.906 95.6781 147.613C100.603 144.32 107.907 149.191 112.503 150.769C115.823 150.604 119.058 153.648 122.437 151.794C128.993 150.025 109.655 149.191 114.718 146.067C108.741 147.81 104.316 143.99 101.384 140.144C94.658 138.593 86.9124 135.161 83.5655 129.216C82.1843 127.001 85.5312 129.551 82.3755 125.896C78.338 122.299 76.314 118.203 73.6046 113.831C70.3693 112.115 69.9815 107.026 69.6468 113.666C69.6734 109.459 65.7155 106.638 64.7752 107.828C64.7487 103.79 68.9827 105.809 66.0184 102.818C65.3809 98.6108 63.2771 94.2386 62.6449 89.5105C61.678 87.2421 62.5068 82.3705 59.298 87.5183C58.1346 92.9689 58.9102 80.8245 60.7377 84.8355C63.1177 80.7395 59.8824 81.2124 59.739 81.7914C61.2902 78.333 60.7377 73.4349 59.3246 75.2889C60.1534 71.6339 60.6527 61.8164 58.0815 63.5589C59.6327 59.7392 61.014 46.0436 54.3202 51.2711C51.579 51.2977 46.8774 52.2699 44.6621 53.3749C51.6374 57.2211 43.9449 54.7561 41.1187 54.1505C40.7574 57.6939 37.9365 56.1692 34.4249 56.1958C40.0402 56.8864 31.6837 61.9227 28.4484 59.9889C24.2727 61.9811 32.0715 66.9642 28.5334 68.5102C28.9743 70.837 22.1424 67.6814 22.6684 73.047C18.599 71.3311 22.1159 79.438 24.1346 76.702C31.0515 78.5561 29.0062 82.8167 29.1709 86.8861C28.0659 89.2395 23.6352 81.3239 28.204 81.6852C24.6074 75.8467 24.2196 79.5814 21.2021 82.2961C20.5115 82.4874 28.868 86.1689 23.6352 87.9964C28.2305 88.687 28.3687 92.7299 29.2824 95.2745C32.0502 98.1805 31.4977 92.0924 34.818 95.5774C32.7143 92.4802 23.7202 86.8595 30.9452 88.6605C30.9187 85.5633 29.6437 83.0452 31.859 83.1249C34.0743 79.1405 29.564 92.9477 34.5152 87.8849C35.8965 87.2739 36.2312 83.9005 38.7227 88.1877C42.2927 91.7311 39.9977 94.2758 34.9615 91.0352C35.8487 94.1058 41.7137 95.2108 40.6087 100.003C41.7721 104.237 43.403 102.659 44.8427 102.436C45.9477 106.532 46.5852 103.514 46.6437 101.549C51.7649 102.654 50.543 105.671 52.1474 107.801C55.659 109.379 47.1112 97.0117 53.1727 104.067C59.5105 109.82 55.5527 112.2 49.8259 111.286C53.449 111.01 54.6124 116.185 59.1227 115.988C63.2452 117.954 66.0396 125.476 58.9315 122.352C56.4665 120.137 47.754 117.369 54.894 121.603C61.4815 124.647 66.6824 126.475 73.0468 130.289C77.5571 133.525 79.5493 137.265 81.2652 137.982C77.4455 139.809 69.753 136.515 75.4534 135.517C71.9099 134.879 67.899 133.084 71.3043 137.509C74.2102 139.942 81.568 139.666 82.8962 139.942C81.7593 142.407 79.8521 142.598 82.9493 142.79C79.4909 144.644 84.0543 144.92 84.3624 145.972L84.3359 145.982ZM77.3074 126.087C75.2037 123.872 74.6512 119.776 76.9196 123.346C78.083 123.819 80.6543 130.071 77.3074 126.087V126.087ZM100.247 140.643C101.548 140.59 100.273 141.642 100.247 140.643V140.643ZM73.9871 120.695C73.9021 117.401 74.7362 123.266 73.9871 120.695V120.695ZM71.6921 117.651C69.0624 112.561 75.039 119.09 71.6921 117.651V117.651ZM44.0777 98.5577C45.629 98.1433 44.8268 101.214 44.0777 98.5577V98.5577ZM66.0768 110.484C67.0171 106.914 67.1818 113.502 66.0768 110.484V110.484ZM50.5218 99.6946C49.4434 97.7289 52.8168 101.549 50.5218 99.6946V99.6946ZM63.8615 103.955C61.3699 98.3664 65.6305 100.911 64.414 104.895L63.8615 103.955ZM40.869 88.6233C39.764 86.7958 37.9099 81.4036 38.5155 79.7674C39.0415 82.4236 44.1893 91.2795 41.0337 83.4224C37.5487 76.8349 45.2093 85.5527 46.0168 87.2155C46.378 88.8464 43.8599 86.7745 45.544 90.5889C42.4468 86.2167 43.7165 92.9955 40.869 88.6233ZM33.7555 83.7252C34.0584 79.4645 35.3865 86.6577 33.7555 83.7252V83.7252ZM36.9643 84.8355C38.4837 81.6002 39.5355 89.3192 36.9643 84.8355V84.8355ZM29.2718 78.8855C26.6156 76.2558 24.7084 73.8227 29.3834 77.2545C31.2109 77.3077 25.399 71.7508 29.8243 75.4855C34.4993 76.3408 32.1193 83.1514 29.2718 78.8908V78.8855ZM33.3146 78.7739C34.8659 77.2545 34.1168 80.2667 33.3146 78.7739V78.7739ZM35.8062 79.5761C33.4793 75.2039 38.6271 81.4036 35.8062 79.5761V79.5761ZM30.8496 74.848C23.1571 68.0161 40.5343 78.4445 32.0927 76.123L30.8496 74.848ZM52.9018 87.6564C49.5549 85.6642 52.0146 73.5995 53.1515 81.8445C56.3868 80.7927 52.9602 86.1052 55.3668 86.052C55.0055 89.3989 53.9271 90.6155 52.9018 87.6564ZM61.0405 92.4695C61.3752 88.8464 61.7312 94.9611 61.0405 92.4695V92.4695ZM59.6274 91.0617C59.9887 89.5105 59.654 92.8892 59.6274 91.0617V91.0617ZM32.3743 72.6061C27.423 65.7742 46.734 79.4964 35.5299 74.322C34.3665 74.0192 32.9587 73.9077 32.3743 72.6061ZM48.0621 80.9308C47.5893 75.1774 49.114 81.8711 48.0621 80.9308V80.9308ZM59.9887 88.5702C60.9024 85.303 60.0418 90.7271 59.9887 88.5702V88.5702ZM33.1181 70.003C36.0505 69.3655 45.2943 75.1508 36.7996 71.6658C35.8593 70.6139 33.8671 71.0867 33.1181 70.003ZM58.3259 82.567C58.6605 76.702 60.0949 79.0555 58.3524 83.3958L58.3259 82.567ZM35.3068 67.9577C36.4968 66.2152 32.1246 60.0155 35.9443 65.7424C37.5752 67.0439 40.7043 67.9258 37.9365 68.4836C42.2821 72.3033 36.8846 69.5089 35.3068 67.9577ZM57.0827 80.7395C57.9115 74.0458 57.8318 84.6389 57.0827 80.7395V80.7395ZM32.8152 61.7845C33.729 61.3967 33.288 63.0011 32.8152 61.7845V61.7845ZM38.489 65.1633C39.9552 62.0927 41.1718 68.5952 38.489 65.1633V65.1633ZM54.5062 74.0989C54.5062 72.9089 54.809 75.7883 54.5062 74.0989V74.0989ZM53.5977 72.0217C51.3824 66.5445 55.6749 74.9277 53.5977 72.0217V72.0217ZM52.2112 68.4252C51.8499 66.1567 53.5127 71.2727 52.2112 68.4252V68.4252ZM54.453 64.802C52.9337 62.1192 56.3921 52.9605 56.748 58.6342C55.1437 63.0595 56.3071 65.5511 57.4121 59.6011C59.4893 54.9261 56.9712 68.8449 54.453 64.802ZM56.7215 51.1861C57.3855 50.3574 56.8862 52.153 56.7215 51.1861V51.1861ZM52.9337 126.363C52.0199 125.561 53.0452 126.863 52.9337 126.363V126.363ZM60.7909 130.321C65.1365 131.458 65.1365 129.657 61.1787 129.131C59.0484 127.139 52.3546 125.035 58.3577 128.881C58.7455 129.88 60.0205 129.848 60.7643 130.321H60.7909ZM45.2677 120.031C47.6743 121.832 54.3149 125.12 48.673 120.695C50.5802 118.511 45.0499 117.321 46.8721 115.855C42.2237 112.976 43.1905 113.252 46.4843 113.337C40.8371 110.819 47.2865 111.01 46.9837 109.714C44.8002 109.3 36.2205 105.894 41.2834 109.99C36.1355 107.387 40.0402 110.989 38.489 110.601C33.2296 109.161 43.164 114.612 37.6602 113.257C40.6777 115.637 45.7937 119.372 38.9352 115.775C38.0215 117.077 43.8334 119.043 45.2731 120.036L45.2677 120.031ZM53.4862 124.759C63.4737 127.968 48.588 120.801 53.4862 124.759V124.759ZM95.5399 150.243C95.678 148.251 94.1852 151.932 95.5399 150.243V150.243ZM99.8855 152.07C102.181 149.829 99.9705 155.614 103.705 151.518C103.732 148.585 103.594 146.843 99.4181 150.413C98.2546 151.05 97.7552 153.76 99.8909 152.076L99.8855 152.07ZM31.2109 108.933C30.5202 106.165 26.2596 106.165 31.2109 108.933V108.933ZM35.8327 111.977C34.1168 109.13 29.718 109.406 35.8327 111.977V111.977ZM62.119 127.835C64.6902 130.103 73.9074 129.498 65.248 128.111C63.9465 126.204 57.088 126.671 62.119 127.835ZM98.228 150.131C102.186 146.811 94.4084 151.598 98.228 150.131V150.131ZM106.441 155.752C106.468 154.7 104.752 156.225 106.441 155.752V155.752ZM106.441 154.286C110.813 149.637 102.207 154.562 106.441 154.286V154.286ZM19.8687 99.4449C16.134 94.1324 17.5418 91.7258 13.9452 87.4067C13.2812 84.0599 7.80399 76.532 11.1243 84.5274C14.1684 89.1758 15.0821 96.3955 19.8687 99.4395V99.4449ZM105.086 152.788C113.14 147.613 101.793 150.546 105.086 152.788V152.788ZM111.233 155.2C115.271 151.768 108.688 154.482 111.233 155.2V155.2ZM29.8562 103.068C31.0196 101.352 26.8971 102.845 29.8562 103.068V103.068ZM109.931 153.563C113.831 151.045 109.044 151.433 109.241 153.786L109.931 153.563ZM57.0243 120.195C56.8862 118.506 54.9471 120.334 57.0243 120.195V120.195ZM60.2915 122.076C59.2396 119.972 58.6871 122.411 60.2915 122.076V122.076ZM116.211 155.279C121.194 151.656 113.167 154.562 115.159 155.943L116.211 155.279ZM114.304 154.339C118.373 150.934 109.985 155.858 114.304 154.339V154.339ZM124.068 160.841C126.809 159.014 120.748 160.262 124.068 160.841V160.841ZM32.3743 101.825C36.0293 102.654 47.0102 110.845 40.5343 102.404C37.214 101.405 39.2062 93.2983 35.8009 94.738C38.0693 98.5311 37.6815 100.162 32.9215 97.7555C26.9184 94.8495 29.5481 99.2217 30.7062 100.412C29.1284 100.773 32.8365 101.793 32.369 101.825H32.3743ZM15.6877 88.6552C16.3252 85.9458 9.62617 73.743 12.5055 82.5405C13.5574 84.368 13.4459 87.8795 15.6877 88.6552ZM46.293 107.552C44.4124 105.974 46.208 107.302 46.293 107.552V107.552ZM50.9415 108.63C50.9415 105.751 45.8202 107.467 50.9415 108.63V108.63ZM91.1996 134.003C90.424 132.037 88.1555 133.95 91.1996 134.003V134.003ZM93.1334 135.416C92.8571 134.311 92.0284 135.607 93.1334 135.416V135.416ZM109.097 145.456C110.617 144.32 107.19 145.318 109.097 145.456V145.456ZM24.0177 90.7855C28.4165 89.0696 19.3162 89.5689 24.0177 90.7855V90.7855ZM87.6562 130.874C87.603 128.026 84.8618 131.591 87.6562 130.874V130.874ZM22.2752 86.7427C25.0962 85.7758 19.6721 86.1052 22.2752 86.7427V86.7427ZM30.4618 90.7005C30.4087 89.7602 29.6065 91.0617 30.4618 90.7005V90.7005ZM130.268 151.906C133.891 151.189 142.168 153.76 143.496 150.939C139.097 150.854 128.249 147.842 127.75 151.656L128.716 151.821L130.268 151.906ZM33.0649 91.3645C33.118 88.4852 30.823 91.253 33.0649 91.3645V91.3645ZM11.5387 76.4205C10.5718 70.9433 7.83055 75.5917 11.5387 76.4205V76.4205ZM16.6865 77.722C16.7396 75.953 11.9849 76.1177 16.6865 77.722V77.722ZM19.619 79.1617C18.7637 78.4711 18.9549 80.017 19.619 79.1617V79.1617ZM38.0427 90.9767C38.9299 90.2011 35.9974 90.3977 38.0427 90.9767V90.9767ZM17.6534 75.9264C17.154 71.7774 11.7034 75.2889 17.6534 75.9264V75.9264ZM7.13992 69.0892C7.0018 67.182 6.11461 69.8064 7.13992 69.0892V69.0892ZM8.68586 67.8992C8.43617 65.6308 7.35774 68.1755 8.68586 67.8992V67.8992ZM17.3505 73.0736C21.0055 71.6339 10.6834 70.0827 16.6015 72.7974L17.3505 73.0736ZM133.036 144.516C135.389 142.386 130.076 143.852 133.036 144.516V144.516ZM147.034 151.768C147.948 149 144.654 152.129 147.034 151.768V151.768ZM18.2324 68.5367C18.6202 65.8539 15.3265 69.0627 18.2324 68.5367V68.5367ZM5.92336 60.2917C5.2593 56.4986 5.37086 49.858 11.6768 52.0999C3.23524 53.7892 17.5152 62.5867 15.7143 55.6433C19.2577 55.808 22.6577 53.5395 20.7771 56.998C27.779 56.2224 32.6187 50.1661 39.3709 50.9949C44.6302 50.3042 50.3837 49.7783 56.0574 47.6745C60.7059 47.3133 65.1896 42.3089 62.6449 39.3445C56.2805 38.792 49.6399 39.5942 42.6115 40.9755C34.834 42.6064 27.779 45.677 19.9218 47.0052C12.2559 48.0305 21.4412 49.8261 19.2577 50.2405C15.2734 51.6217 24.0177 52.5674 18.7318 54.0017C15.4965 53.3908 12.0912 52.2592 13.4724 48.8274C6.14117 49.7677 -0.308202 52.8383 5.50367 60.2811L5.92336 60.2917ZM23.6034 51.2977C25.3193 44.9599 32.8152 56.4986 26.4243 52.1264C25.6487 51.5739 24.4055 51.1011 23.6034 51.2977ZM23.9327 48.227C26.3977 46.3995 25.2343 49.2524 23.9327 48.227V48.227ZM27.0884 48.2855C27.3115 45.3795 34.2815 49.8367 28.2252 49.3374L27.0884 48.2855ZM31.3755 46.5377C32.9534 44.7102 31.8484 48.2005 31.3755 46.5377V46.5377ZM32.4859 45.8205C35.1155 42.6649 47.3449 43.8017 38.3774 45.5177C35.9974 43.7167 34.1434 46.5695 32.4859 45.8205ZM48.4499 43.3555C48.0355 34.7492 56.3655 46.4261 48.4499 43.3555V43.3555ZM52.9602 43.3289C54.623 38.9833 59.3777 41.5864 53.7359 42.4417C53.8474 42.9145 53.5712 44.6836 52.9602 43.3289ZM16.4368 66.3214C21.388 63.2774 11.2093 63.6917 16.4368 66.3214V66.3214ZM20.0865 67.3467C21.829 65.4927 16.3252 66.5711 20.0865 67.3467V67.3467ZM9.32336 59.6808C12.1443 57.5239 6.00305 58.852 9.32336 59.6808V59.6808ZM155.279 150.992C155.364 148.474 153.122 152.129 155.279 150.992V150.992ZM140.452 140.866C140.866 137.96 138.545 141.116 140.452 140.866V140.866ZM159.348 151.959C163.306 151.959 171.301 150.742 162.722 150.742C161.367 150.965 154.865 150.907 159.348 151.959ZM23.2952 65.5511C26.504 65.328 28.3049 62.0395 22.6843 62.2308C13.9665 61.317 30.3502 65.1899 21.5793 64.0849C20.3893 64.8605 23.2421 65.7742 23.2952 65.5511ZM26.1215 66.9855C25.7868 64.9083 25.1227 68.0639 26.1215 66.9855V66.9855ZM29.4418 58.0764C30.8549 56.3605 27.5346 57.6036 29.4418 58.0764V58.0764ZM18.8168 40.3167C24.5437 38.3777 32.3477 36.1942 35.0305 41.257C32.2893 37.9633 33.9255 34.728 36.5234 39.5411C40.1784 44.4392 42.0005 37.3258 39.6205 35.6949C42.3299 39.0683 45.4059 40.6461 41.448 35.8861C45.7671 30.7117 32.7887 36.5767 29.8243 36.5236C28.4112 37.1611 15.1618 39.897 18.838 40.3167H18.8168ZM22.1637 33.9205C25.4309 31.4555 33.4262 35.3602 28.2784 31.4555C27.8055 31.0411 17.0424 34.4145 22.1637 33.9205ZM34.0318 34.3933C37.8515 34.5049 32.4009 29.3039 36.9377 31.652C36.1887 29.2189 31.6518 28.7461 29.4099 27.7792C28.1668 30.0211 31.9812 34.4199 34.0318 34.3933ZM24.2674 23.6302C25.569 21.8611 21.9405 24.5439 24.2674 23.6302V23.6302ZM29.1071 24.7936C35.2218 23.9914 27.5293 22.1639 27.864 24.7405L29.1071 24.7936ZM20.0599 17.7067C15.7409 12.0595 28.1668 18.6736 23.7946 12.7555C20.0865 9.82298 16.543 16.0758 20.0599 17.7067V17.7067ZM75.4799 47.563C77.4721 44.0514 67.288 42.8295 74.1518 46.3199C74.7893 46.543 74.6246 47.8127 75.4799 47.563Z" fill="black"/>
</g>
<defs>
<clipPath id="clip0">
<rect width="170" height="170" fill="white"/>
</clipPath>
</defs>
</svg>
