<svg width="432" height="432" viewBox="0 0 432 432" fill="none" xmlns="http://www.w3.org/2000/svg">
<rect width="432" height="432" rx="3" fill="#AEAE98" fill-opacity="0.6"/>
<path opacity="0.3" d="M157.219 227V226.244C158.016 226.08 158.637 225.904 159.082 225.717C159.539 225.518 159.768 225.336 159.768 225.172V206.082C159.334 206.141 158.9 206.205 158.467 206.275C158.045 206.334 157.629 206.398 157.219 206.469L157.061 205.379C157.623 205.227 158.232 205.086 158.889 204.957C159.557 204.828 160.248 204.717 160.963 204.623C161.678 204.529 162.398 204.459 163.125 204.412C163.863 204.354 164.59 204.324 165.305 204.324C166.57 204.324 167.713 204.459 168.732 204.729C169.752 204.998 170.619 205.396 171.334 205.924C172.061 206.451 172.617 207.102 173.004 207.875C173.402 208.648 173.602 209.539 173.602 210.547C173.602 211.355 173.484 212.094 173.25 212.762C173.027 213.43 172.723 214.027 172.336 214.555C171.961 215.07 171.527 215.521 171.035 215.908C170.543 216.283 170.027 216.6 169.488 216.857C168.961 217.104 168.428 217.291 167.889 217.42C167.361 217.537 166.869 217.596 166.412 217.596C165.311 217.596 164.367 217.42 163.582 217.068L163.178 215.75C163.67 215.973 164.139 216.119 164.584 216.189C165.041 216.248 165.475 216.277 165.885 216.277C166.424 216.277 166.986 216.172 167.572 215.961C168.158 215.75 168.697 215.434 169.189 215.012C169.682 214.59 170.086 214.068 170.402 213.447C170.719 212.826 170.877 212.1 170.877 211.268C170.877 210.307 170.701 209.48 170.35 208.789C170.01 208.098 169.541 207.535 168.943 207.102C168.346 206.656 167.648 206.328 166.852 206.117C166.055 205.906 165.205 205.801 164.303 205.801C164.01 205.801 163.717 205.807 163.424 205.818C163.143 205.818 162.861 205.824 162.58 205.836V225.172C162.58 225.242 162.627 225.318 162.721 225.4C162.814 225.482 162.973 225.57 163.195 225.664C163.43 225.758 163.746 225.852 164.145 225.945C164.543 226.039 165.047 226.139 165.656 226.244V227H157.219ZM188.719 210.775C188.824 210.846 188.871 211.051 188.859 211.391C188.859 211.73 188.812 212.123 188.719 212.568C188.637 213.014 188.525 213.471 188.385 213.939C188.244 214.408 188.104 214.801 187.963 215.117H187.207C187.137 214.648 187.037 214.25 186.908 213.922C186.779 213.594 186.627 213.336 186.451 213.148C186.287 212.949 186.1 212.809 185.889 212.727C185.689 212.633 185.479 212.586 185.256 212.586C184.998 212.586 184.693 212.697 184.342 212.92C184.002 213.131 183.65 213.471 183.287 213.939C182.924 214.396 182.561 214.988 182.197 215.715C181.846 216.43 181.529 217.285 181.248 218.281V225.172C181.248 225.348 181.465 225.529 181.898 225.717C182.344 225.904 183.117 226.08 184.219 226.244V227H176.15V226.244C176.924 226.068 177.527 225.898 177.961 225.734C178.395 225.559 178.611 225.371 178.611 225.172V214.941C178.611 214.555 178.6 214.232 178.576 213.975C178.553 213.705 178.523 213.488 178.488 213.324C178.453 213.16 178.406 213.031 178.348 212.938C178.301 212.844 178.254 212.768 178.207 212.709C178.125 212.627 178.031 212.562 177.926 212.516C177.832 212.457 177.703 212.41 177.539 212.375C177.387 212.34 177.199 212.316 176.977 212.305C176.754 212.281 176.479 212.258 176.15 212.234V211.531C176.912 211.332 177.656 211.133 178.383 210.934C179.121 210.723 179.783 210.453 180.369 210.125L180.984 210.74L181.213 214.73C181.529 214.086 181.869 213.482 182.232 212.92C182.607 212.357 183.006 211.871 183.428 211.461C183.85 211.039 184.289 210.711 184.746 210.477C185.215 210.242 185.701 210.125 186.205 210.125C186.58 210.125 186.984 210.172 187.418 210.266C187.852 210.359 188.285 210.529 188.719 210.775ZM198.176 211.971C197.566 211.971 197.004 212.088 196.488 212.322C195.984 212.557 195.533 212.891 195.135 213.324C194.748 213.746 194.42 214.256 194.15 214.854C193.893 215.439 193.711 216.09 193.605 216.805H201.129C201.398 216.805 201.574 216.764 201.656 216.682C201.75 216.588 201.797 216.418 201.797 216.172C201.797 215.855 201.75 215.463 201.656 214.994C201.574 214.514 201.398 214.051 201.129 213.605C200.871 213.148 200.502 212.762 200.021 212.445C199.553 212.129 198.938 211.971 198.176 211.971ZM204.68 217.209C204.469 217.443 204.188 217.66 203.836 217.859C203.484 218.059 203.121 218.234 202.746 218.387H193.5C193.512 219.301 193.635 220.174 193.869 221.006C194.115 221.826 194.461 222.553 194.906 223.186C195.363 223.807 195.908 224.305 196.541 224.68C197.186 225.055 197.906 225.242 198.703 225.242C199.066 225.242 199.418 225.219 199.758 225.172C200.109 225.125 200.484 225.02 200.883 224.855C201.281 224.691 201.721 224.451 202.201 224.135C202.693 223.818 203.268 223.391 203.924 222.852C204.076 222.934 204.205 223.051 204.311 223.203C204.428 223.355 204.516 223.479 204.574 223.572C203.789 224.428 203.098 225.119 202.5 225.646C201.914 226.162 201.357 226.561 200.83 226.842C200.314 227.123 199.799 227.305 199.283 227.387C198.779 227.48 198.229 227.527 197.631 227.527C196.729 227.527 195.867 227.334 195.047 226.947C194.238 226.561 193.523 226.016 192.902 225.312C192.281 224.598 191.783 223.742 191.408 222.746C191.045 221.738 190.863 220.613 190.863 219.371C190.863 218.586 190.951 217.812 191.127 217.051C191.303 216.289 191.555 215.568 191.883 214.889C192.223 214.209 192.633 213.582 193.113 213.008C193.594 212.434 194.139 211.936 194.748 211.514C195.006 211.338 195.293 211.168 195.609 211.004C195.938 210.828 196.277 210.676 196.629 210.547C196.98 210.418 197.326 210.318 197.666 210.248C198.018 210.166 198.352 210.125 198.668 210.125C199.43 210.125 200.109 210.23 200.707 210.441C201.305 210.652 201.826 210.939 202.271 211.303C202.717 211.654 203.092 212.07 203.396 212.551C203.701 213.02 203.947 213.518 204.135 214.045C204.334 214.572 204.475 215.111 204.557 215.662C204.639 216.201 204.68 216.717 204.68 217.209ZM223.471 211.408C223.119 211.49 222.832 211.566 222.609 211.637C222.387 211.707 222.205 211.789 222.064 211.883C221.924 211.965 221.812 212.064 221.73 212.182C221.66 212.287 221.596 212.428 221.537 212.604L216.562 225.963C216.457 226.221 216.305 226.443 216.105 226.631C215.906 226.807 215.689 226.953 215.455 227.07C215.221 227.199 214.986 227.299 214.752 227.369C214.529 227.439 214.342 227.492 214.189 227.527L208.389 212.604C208.283 212.275 208.078 212.029 207.773 211.865C207.469 211.689 207.023 211.537 206.438 211.408V210.652H213.223V211.408C212.766 211.467 212.391 211.525 212.098 211.584C211.816 211.643 211.594 211.719 211.43 211.812C211.277 211.895 211.189 212 211.166 212.129C211.143 212.258 211.166 212.416 211.236 212.604L215.561 223.871L219.621 212.604C219.68 212.428 219.697 212.281 219.674 212.164C219.662 212.035 219.586 211.93 219.445 211.848C219.305 211.754 219.1 211.678 218.83 211.619C218.572 211.549 218.227 211.479 217.793 211.408V210.652H223.471V211.408ZM225.07 227V226.244C225.867 226.08 226.477 225.904 226.898 225.717C227.32 225.518 227.531 225.336 227.531 225.172V215.223C227.531 214.625 227.52 214.145 227.496 213.781C227.473 213.406 227.385 213.119 227.232 212.92C227.08 212.709 226.834 212.557 226.494 212.463C226.166 212.369 225.691 212.293 225.07 212.234V211.531C225.434 211.461 225.814 211.379 226.213 211.285C226.623 211.18 227.027 211.068 227.426 210.951C227.824 210.822 228.205 210.688 228.568 210.547C228.932 210.406 229.266 210.266 229.57 210.125H230.168V225.172C230.168 225.312 230.361 225.488 230.748 225.699C231.146 225.898 231.773 226.08 232.629 226.244V227H225.07ZM230.695 204.834C230.695 205.162 230.643 205.473 230.537 205.766C230.432 206.059 230.285 206.316 230.098 206.539C229.922 206.75 229.711 206.92 229.465 207.049C229.219 207.178 228.949 207.242 228.656 207.242C228.129 207.242 227.748 207.096 227.514 206.803C227.291 206.51 227.18 206.094 227.18 205.555C227.18 205.227 227.232 204.916 227.338 204.623C227.443 204.33 227.59 204.078 227.777 203.867C227.965 203.645 228.176 203.475 228.41 203.357C228.656 203.229 228.92 203.164 229.201 203.164C230.197 203.164 230.695 203.721 230.695 204.834ZM242.332 211.971C241.723 211.971 241.16 212.088 240.645 212.322C240.141 212.557 239.689 212.891 239.291 213.324C238.904 213.746 238.576 214.256 238.307 214.854C238.049 215.439 237.867 216.09 237.762 216.805H245.285C245.555 216.805 245.73 216.764 245.812 216.682C245.906 216.588 245.953 216.418 245.953 216.172C245.953 215.855 245.906 215.463 245.812 214.994C245.73 214.514 245.555 214.051 245.285 213.605C245.027 213.148 244.658 212.762 244.178 212.445C243.709 212.129 243.094 211.971 242.332 211.971ZM248.836 217.209C248.625 217.443 248.344 217.66 247.992 217.859C247.641 218.059 247.277 218.234 246.902 218.387H237.656C237.668 219.301 237.791 220.174 238.025 221.006C238.271 221.826 238.617 222.553 239.062 223.186C239.52 223.807 240.064 224.305 240.697 224.68C241.342 225.055 242.062 225.242 242.859 225.242C243.223 225.242 243.574 225.219 243.914 225.172C244.266 225.125 244.641 225.02 245.039 224.855C245.438 224.691 245.877 224.451 246.357 224.135C246.85 223.818 247.424 223.391 248.08 222.852C248.232 222.934 248.361 223.051 248.467 223.203C248.584 223.355 248.672 223.479 248.73 223.572C247.945 224.428 247.254 225.119 246.656 225.646C246.07 226.162 245.514 226.561 244.986 226.842C244.471 227.123 243.955 227.305 243.439 227.387C242.936 227.48 242.385 227.527 241.787 227.527C240.885 227.527 240.023 227.334 239.203 226.947C238.395 226.561 237.68 226.016 237.059 225.312C236.438 224.598 235.939 223.742 235.564 222.746C235.201 221.738 235.02 220.613 235.02 219.371C235.02 218.586 235.107 217.812 235.283 217.051C235.459 216.289 235.711 215.568 236.039 214.889C236.379 214.209 236.789 213.582 237.27 213.008C237.75 212.434 238.295 211.936 238.904 211.514C239.162 211.338 239.449 211.168 239.766 211.004C240.094 210.828 240.434 210.676 240.785 210.547C241.137 210.418 241.482 210.318 241.822 210.248C242.174 210.166 242.508 210.125 242.824 210.125C243.586 210.125 244.266 210.23 244.863 210.441C245.461 210.652 245.982 210.939 246.428 211.303C246.873 211.654 247.248 212.07 247.553 212.551C247.857 213.02 248.104 213.518 248.291 214.045C248.49 214.572 248.631 215.111 248.713 215.662C248.795 216.201 248.836 216.717 248.836 217.209ZM275.291 211.408C274.928 211.49 274.641 211.572 274.43 211.654C274.219 211.725 274.049 211.801 273.92 211.883C273.803 211.953 273.715 212.041 273.656 212.146C273.609 212.24 273.568 212.357 273.533 212.498L269.648 225.963C269.578 226.221 269.438 226.443 269.227 226.631C269.027 226.807 268.805 226.953 268.559 227.07C268.312 227.199 268.066 227.299 267.82 227.369C267.586 227.439 267.393 227.492 267.24 227.527L263.057 215.609L259.453 225.963C259.359 226.232 259.213 226.461 259.014 226.648C258.826 226.824 258.615 226.971 258.381 227.088C258.146 227.217 257.912 227.311 257.678 227.369C257.455 227.439 257.268 227.492 257.115 227.527L252.51 212.498C252.404 212.041 251.766 211.678 250.594 211.408V210.652H257.379V211.408C256.805 211.467 256.359 211.537 256.043 211.619C255.727 211.689 255.498 211.777 255.357 211.883C255.217 211.977 255.141 212.076 255.129 212.182C255.129 212.287 255.146 212.393 255.182 212.498L258.486 223.66L262.811 210.652H264.023L268.594 223.66L271.635 212.498C271.705 212.229 271.582 212.012 271.266 211.848C270.949 211.684 270.387 211.537 269.578 211.408V210.652H275.291V211.408Z" fill="black"/>
<line opacity="0.15" x1="156" y1="239.5" x2="276" y2="239.544" stroke="#20211C"/>
</svg>
