<svg width="93" height="74" viewBox="0 0 93 74" fill="none" xmlns="http://www.w3.org/2000/svg">
<path d="M9.29942 64.5107C9.29942 65.6533 8.88633 66.5498 8.06016 67.2002C7.23399 67.8506 6.09434 68.1758 4.64121 68.1758C3.18809 68.1758 1.99863 67.9502 1.07285 67.499V65.5127C1.65879 65.7881 2.27988 66.0049 2.93613 66.1631C3.59824 66.3213 4.21348 66.4004 4.78184 66.4004C5.61387 66.4004 6.22617 66.2422 6.61875 65.9258C7.01719 65.6094 7.21641 65.1846 7.21641 64.6514C7.21641 64.1709 7.03477 63.7637 6.67149 63.4297C6.3082 63.0957 5.5582 62.7002 4.42149 62.2432C3.24961 61.7686 2.42344 61.2266 1.94297 60.6172C1.4625 60.0078 1.22227 59.2754 1.22227 58.4199C1.22227 57.3477 1.60313 56.5039 2.36485 55.8887C3.12656 55.2734 4.14902 54.9658 5.43223 54.9658C6.6627 54.9658 7.88731 55.2354 9.10606 55.7744L8.43809 57.4883C7.29551 57.0078 6.27598 56.7676 5.37949 56.7676C4.69981 56.7676 4.18418 56.917 3.83262 57.2158C3.48106 57.5088 3.30527 57.8984 3.30527 58.3848C3.30527 58.7188 3.37559 59.0059 3.51621 59.2461C3.65684 59.4805 3.88828 59.7031 4.21055 59.9141C4.53281 60.125 5.11289 60.4033 5.95078 60.749C6.89414 61.1416 7.58555 61.5078 8.025 61.8477C8.46445 62.1875 8.78672 62.5713 8.9918 62.999C9.19688 63.4268 9.29942 63.9307 9.29942 64.5107ZM12.7324 68H10.667V58.2793H12.7324V68ZM10.5439 55.7041C10.5439 55.335 10.6436 55.0508 10.8428 54.8516C11.0479 54.6523 11.3379 54.5527 11.7129 54.5527C12.0762 54.5527 12.3574 54.6523 12.5566 54.8516C12.7617 55.0508 12.8643 55.335 12.8643 55.7041C12.8643 56.0557 12.7617 56.334 12.5566 56.5391C12.3574 56.7383 12.0762 56.8379 11.7129 56.8379C11.3379 56.8379 11.0479 56.7383 10.8428 56.5391C10.6436 56.334 10.5439 56.0557 10.5439 55.7041ZM22.9857 68H20.9115V62.0059C20.9115 61.2617 20.7709 60.708 20.4896 60.3447C20.2084 59.9756 19.7689 59.791 19.1713 59.791C18.3744 59.791 17.7885 60.0518 17.4135 60.5732C17.0443 61.0889 16.8598 61.9502 16.8598 63.1572V68H14.7943V58.2793H16.4115L16.7016 59.5537H16.807C17.0766 59.0908 17.4662 58.7334 17.976 58.4814C18.4916 58.2295 19.057 58.1035 19.6723 58.1035C21.1664 58.1035 22.1566 58.6133 22.643 59.6328H22.7836C23.0707 59.1523 23.475 58.7773 23.9965 58.5078C24.518 58.2383 25.1156 58.1035 25.7895 58.1035C26.9496 58.1035 27.7934 58.3965 28.3207 58.9824C28.8539 59.5684 29.1205 60.4619 29.1205 61.6631V68H27.0551V62.0059C27.0551 61.2617 26.9115 60.708 26.6244 60.3447C26.3432 59.9756 25.9037 59.791 25.3061 59.791C24.5033 59.791 23.9145 60.043 23.5395 60.5469C23.1703 61.0449 22.9857 61.8125 22.9857 62.8496V68ZM36.034 68.1758C34.8035 68.1758 33.8484 67.7334 33.1688 66.8486H33.0457C33.1277 67.6689 33.1688 68.167 33.1688 68.3428V72.3242H31.1033V58.2793H32.7732C32.8201 58.4609 32.9168 58.8945 33.0633 59.5801H33.1688C33.8133 58.5957 34.7801 58.1035 36.0691 58.1035C37.282 58.1035 38.2254 58.543 38.8992 59.4219C39.5789 60.3008 39.9188 61.5342 39.9188 63.1221C39.9188 64.71 39.573 65.9492 38.8816 66.8398C38.1961 67.7305 37.2469 68.1758 36.034 68.1758ZM35.533 59.791C34.7127 59.791 34.1121 60.0312 33.7313 60.5117C33.3563 60.9922 33.1688 61.7598 33.1688 62.8145V63.1221C33.1688 64.3057 33.3563 65.1641 33.7313 65.6973C34.1063 66.2246 34.7186 66.4883 35.5682 66.4883C36.283 66.4883 36.8338 66.1953 37.2205 65.6094C37.6072 65.0234 37.8006 64.1885 37.8006 63.1045C37.8006 62.0146 37.6072 61.1914 37.2205 60.6348C36.8396 60.0723 36.2771 59.791 35.533 59.791ZM43.4836 68H41.4182V54.3242H43.4836V68ZM49.7906 68.1758C48.2789 68.1758 47.0953 67.7363 46.2398 66.8574C45.3902 65.9727 44.9654 64.7568 44.9654 63.21C44.9654 61.6221 45.3609 60.374 46.152 59.4658C46.943 58.5576 48.0299 58.1035 49.4127 58.1035C50.6959 58.1035 51.7096 58.4932 52.4537 59.2725C53.1979 60.0518 53.5699 61.124 53.5699 62.4893V63.6055H47.0924C47.1217 64.5488 47.3766 65.2754 47.857 65.7852C48.3375 66.2891 49.0143 66.541 49.8873 66.541C50.4615 66.541 50.9947 66.4883 51.4869 66.3828C51.985 66.2715 52.5182 66.0898 53.0865 65.8379V67.5166C52.5826 67.7568 52.0729 67.9268 51.5572 68.0264C51.0416 68.126 50.4527 68.1758 49.7906 68.1758ZM49.4127 59.668C48.7564 59.668 48.2291 59.876 47.8307 60.292C47.4381 60.708 47.2037 61.3145 47.1275 62.1113H51.5396C51.5279 61.3086 51.3346 60.7021 50.9596 60.292C50.5846 59.876 50.0689 59.668 49.4127 59.668ZM63.041 68H54.3311V66.4355L57.6445 63.1045C58.623 62.1025 59.2705 61.3936 59.5869 60.9775C59.9092 60.5557 60.1436 60.1602 60.29 59.791C60.4365 59.4219 60.5098 59.0264 60.5098 58.6045C60.5098 58.0244 60.334 57.5674 59.9824 57.2334C59.6367 56.8994 59.1562 56.7324 58.541 56.7324C58.0488 56.7324 57.5713 56.8232 57.1084 57.0049C56.6514 57.1865 56.1211 57.5146 55.5176 57.9893L54.4014 56.627C55.1162 56.0234 55.8105 55.5957 56.4844 55.3438C57.1582 55.0918 57.876 54.9658 58.6377 54.9658C59.833 54.9658 60.791 55.2793 61.5117 55.9062C62.2324 56.5273 62.5928 57.3652 62.5928 58.4199C62.5928 59 62.4873 59.5508 62.2764 60.0723C62.0713 60.5938 61.752 61.1328 61.3184 61.6895C60.8906 62.2402 60.1758 62.9873 59.1738 63.9307L56.9414 66.0928V66.1807H63.041V68ZM64.6195 55.1504H68.434C70.2035 55.1504 71.4809 55.4082 72.266 55.9238C73.057 56.4395 73.4525 57.2539 73.4525 58.3672C73.4525 59.1172 73.2592 59.7412 72.8725 60.2393C72.4857 60.7373 71.9291 61.0508 71.2025 61.1797V61.2676C72.1049 61.4375 72.767 61.7744 73.1889 62.2783C73.6166 62.7764 73.8305 63.4531 73.8305 64.3086C73.8305 65.4629 73.4262 66.3682 72.6176 67.0244C71.8148 67.6748 70.6957 68 69.2602 68H64.6195V55.1504ZM66.7201 60.459H68.7416C69.6205 60.459 70.2621 60.3213 70.6664 60.0459C71.0707 59.7646 71.2729 59.29 71.2729 58.6221C71.2729 58.0186 71.0531 57.582 70.6137 57.3125C70.1801 57.043 69.4887 56.9082 68.5395 56.9082H66.7201V60.459ZM66.7201 62.1641V66.2334H68.9525C69.8314 66.2334 70.4936 66.0664 70.9389 65.7324C71.39 65.3926 71.6156 64.8594 71.6156 64.1328C71.6156 63.4648 71.3871 62.9697 70.9301 62.6475C70.473 62.3252 69.7787 62.1641 68.8471 62.1641H66.7201Z" fill="#9A9A9A"/>
<circle cx="36.5" cy="28.5" r="22.5" fill="#51B7C3"/>
<path d="M88.6064 38.0762C88.6064 45.2734 87.7113 51.7008 85.9209 57.3584C84.1305 63.0518 81.1764 68.4408 77.0586 73.5254H74.3193C82.0179 64.0365 85.8672 52.2201 85.8672 38.0762C85.8672 30.4134 84.9362 23.6637 83.0742 17.8271C81.248 11.9548 78.3298 6.2972 74.3193 0.854492H77.0586C81.1048 6.47624 84.041 12.2591 85.8672 18.2031C87.6934 24.1113 88.6064 30.7357 88.6064 38.0762Z" fill="#9A9A9A"/>
<circle cx="48.5" cy="28.5" r="22.5" fill="#9BDBE3" fill-opacity="0.61"/>
</svg>
