<svg width="170" height="170" viewBox="0 0 170 170" fill="none" xmlns="http://www.w3.org/2000/svg">
<path d="M54.1166 73.5254C54.1166 75.2962 54.2582 76.7129 54.6124 77.917C54.9666 78.767 55.4624 79.9004 56.0999 81.1754C56.3832 81.4587 56.4541 81.8837 56.4541 82.2379C56.4541 82.7337 56.1707 83.1587 55.5332 83.6545L52.5582 85.6379C52.1332 85.9212 51.7082 86.0629 51.3541 86.0629C50.8582 86.0629 50.4332 85.7795 49.9374 85.3545C49.2999 84.6462 48.7332 83.9379 48.2374 83.1587C47.8124 82.3795 47.3166 81.4587 46.8207 80.3962C43.1374 84.717 38.5332 86.9129 32.9374 86.9129C28.9707 86.9129 25.8541 85.7795 23.5166 83.5129C21.2499 81.2462 20.0457 78.2004 20.0457 74.3754C20.0457 70.4795 21.4624 67.292 24.2957 64.742C27.1999 62.3337 31.0249 61.0587 35.8416 61.0587C37.4707 61.0587 38.9582 61.2004 40.8707 61.4837C42.4999 61.6962 44.4124 62.0504 46.2541 62.4754V59.0754C46.2541 55.4629 45.5457 53.1254 44.0582 51.4962C42.4999 50.0087 40.0207 49.3712 36.4082 49.3712C34.7082 49.3712 33.0082 49.5837 31.3082 49.9379C29.5374 50.3629 27.8374 50.8587 26.2082 51.567C25.4291 51.8504 24.7916 52.0629 24.5791 52.1337C24.2249 52.2754 24.0124 52.2754 23.7999 52.2754C23.1624 52.2754 22.8082 51.8504 22.8082 50.8587V48.5212C22.8082 47.8129 22.8791 47.2462 23.1624 46.892C23.3749 46.5379 23.7999 46.2545 24.4374 46.042C26.1374 45.0504 28.0499 44.342 30.3874 43.7754C32.7903 43.1384 35.2683 42.8286 37.7541 42.8545C43.3499 42.8545 47.4582 44.1295 50.0791 46.6795C52.6999 49.2295 53.9749 53.1254 53.9749 58.2962V73.5254H54.1166V73.5254ZM34.9916 80.7504C36.5499 80.7504 38.1082 80.467 39.8082 79.9004C41.5082 79.3337 42.9957 78.2712 44.2707 76.8545C45.0499 75.9337 45.6166 74.942 46.0416 73.8087C46.0416 72.6754 46.3957 71.3295 46.3957 69.7004V67.7879C44.9791 67.292 43.5624 67.292 42.0041 66.9379C40.5452 66.7774 39.0798 66.6829 37.6124 66.6545C34.4249 66.6545 32.1582 67.292 30.5999 68.567C29.0416 69.842 28.3332 71.6129 28.3332 73.9504C28.3332 76.217 28.8291 77.917 30.0332 78.9795C31.1666 80.1837 32.7957 80.7504 34.9916 80.7504V80.7504ZM72.8166 85.7795C72.1303 85.8058 71.4484 85.6597 70.8332 85.3545C70.6207 85.0004 70.2666 84.3629 69.9832 83.5129L58.9332 47.1045C58.6499 46.042 58.5082 45.5462 58.5082 45.192C58.5082 44.4129 58.8624 43.9879 59.6416 43.9879H64.2457C65.1666 43.9879 65.8041 44.1295 66.0874 44.4837C66.5124 44.767 66.7957 45.4045 67.0791 46.3254L74.9416 77.492L82.3082 46.3254C82.5207 45.4045 82.8041 44.767 83.2291 44.4837C83.5832 44.2004 84.2207 43.9879 84.9999 43.9879H88.8957C89.7457 43.9879 90.3832 44.1295 90.7374 44.4837C91.0916 44.767 91.4457 45.4045 91.6582 46.3254L99.1666 77.917L107.242 46.3254C107.525 45.4045 107.879 44.767 108.162 44.4837C108.587 44.2004 109.154 43.9879 110.004 43.9879H114.396C115.175 43.9879 115.6 44.4129 115.6 45.192C115.6 45.4045 115.529 45.6879 115.458 46.042C115.458 46.042 115.317 46.6087 115.175 47.1045L103.771 83.5129C103.487 84.5045 103.204 85.0004 102.708 85.3545C102.425 85.6379 101.787 85.8504 101.008 85.8504H96.9707C96.0499 85.8504 95.6249 85.7087 95.0582 85.3545C94.5819 84.8496 94.2835 84.2029 94.2082 83.5129L86.9124 53.1254L79.6166 83.442C79.4041 84.3629 79.1207 85.0004 78.7666 85.3545C78.1831 85.6769 77.5191 85.8244 76.8541 85.7795H72.8166V85.7795ZM133.379 87.0545C131.042 87.0545 128.421 86.7712 126.083 86.2045C123.746 85.6379 121.904 85.0004 120.7 84.3629C120.084 84.0683 119.567 83.6007 119.212 83.017C119.018 82.6206 118.921 82.1835 118.929 81.742V79.3337C118.929 78.342 119.283 77.917 119.992 77.917H120.842C121.125 77.917 121.55 78.2712 122.046 78.4837C123.604 79.192 125.375 79.7587 127.217 80.1129C129.129 80.467 131.042 80.6795 132.812 80.6795C135.787 80.6795 138.125 80.1837 139.683 79.1212C141.312 77.917 142.162 76.5712 142.162 74.6587C142.162 73.3129 141.667 72.2504 140.887 71.3295C140.037 70.4795 138.408 69.6295 136.142 68.9212L129.271 66.7962C125.871 65.6629 123.321 64.1045 121.762 61.9795C120.242 60.0125 119.419 57.595 119.425 55.1087C119.425 53.1254 119.85 51.4254 120.7 49.9379C121.55 48.3795 122.683 47.1045 123.958 46.042C125.517 44.9795 127.075 44.2004 128.987 43.6337C130.829 43.067 132.812 42.7837 134.937 42.7837C135.929 42.7837 136.992 42.8545 138.125 42.9962C139.117 43.1379 140.108 43.3504 141.1 43.492C142.092 43.7754 142.942 43.9879 143.792 44.2712C144.642 44.5545 145.208 44.8379 145.775 45.1212C146.412 45.4754 146.908 45.8295 147.192 46.2545C147.475 46.6795 147.617 47.1754 147.617 47.8129V50.0795C147.617 51.0712 147.262 51.567 146.554 51.567C146.2 51.567 145.562 51.3545 144.712 51.0004C142.092 49.7962 139.046 49.1587 135.717 49.1587C133.025 49.1587 131.042 49.5837 129.412 50.5045C127.996 51.3545 127.217 52.7712 127.217 54.6837C127.217 56.0295 127.712 57.1629 128.633 58.0129C129.554 58.9337 131.325 59.7837 133.804 60.6337L140.533 62.7587C143.933 63.7504 146.342 65.3087 147.829 67.292C149.246 69.2045 149.954 71.4004 149.954 73.8795C149.954 75.8629 149.529 77.7045 148.75 79.3337C147.9 80.892 146.767 82.3087 145.208 83.442C143.862 84.6462 142.092 85.4962 140.108 86.1337C138.125 86.7712 135.717 87.0545 133.379 87.0545V87.0545ZM142.233 110.005C126.721 121.409 104.196 127.5 84.9999 127.5C57.7291 127.5 33.2916 117.442 14.8041 100.796C13.3166 99.4503 14.6624 97.6795 16.4332 98.742C36.4082 110.288 60.9874 117.3 86.4874 117.3C103.7 117.3 122.612 113.759 139.967 106.25C142.587 105.188 144.783 108.092 142.233 110.005V110.005ZM148.75 102.709C146.696 100.088 135.575 101.434 130.546 102C129.058 102.213 128.846 100.867 130.192 99.8754C139.046 93.7129 153.637 95.6254 155.267 97.5379C156.967 99.6629 154.842 114.255 146.554 121.196C145.208 122.259 144.004 121.692 144.571 120.417C146.483 115.6 150.662 105.117 148.75 102.709V102.709Z" fill="black"/>
</svg>
