<svg width="170" height="160" viewBox="0 0 170 160" fill="none" xmlns="http://www.w3.org/2000/svg">
<path d="M40.2416 78.7124C42.4057 90.9044 50.9638 101.852 63.7179 104.437C60.1722 111.21 60.6119 117.29 64.0244 122.47C67.4646 127.692 73.8844 131.938 82.0698 135.114V143.591H65.4348L59.7301 123.781L59.6508 123.505L59.3732 123.434C55.3688 122.414 51.3962 120.887 47.5199 118.804L47.273 118.672L47.031 118.813L27.6367 130.143L16.4322 118.938L26.9226 99.3386L27.0529 99.0952L26.9163 98.8553C24.8663 95.2538 23.2574 91.4185 22.1244 87.4322L22.0472 87.1604L21.7745 87.0864L0.5 81.3076V65.4328L21.6688 59.2147L21.936 59.1362L22.01 58.8677C23.1046 54.8922 24.6706 51.0293 26.7124 47.375L26.8488 47.131L26.7123 46.8871L15.9479 27.642L27.1527 16.4378L46.5542 27.3361L46.7966 27.4723L47.0402 27.3382C50.7702 25.2852 54.5944 23.7471 58.4506 22.6863L58.7249 22.6109L58.8001 22.3365L64.7878 0.5H80.6573L86.8213 22.803L86.8944 23.0674L87.1568 23.1478C90.7787 24.2578 94.2718 25.7509 97.577 27.6017L97.8238 27.7399L98.0694 27.5996L118.457 15.9508L129.658 27.1521L118.066 47.7375L117.93 47.9786L118.062 48.2218C120.97 53.5676 122.977 59.5354 123.823 65.9833H104.02C99.5466 45.1971 75.4449 33.4736 55.8737 44.7568C42.4505 52.4864 38.0367 66.2897 40.2416 78.7124ZM148.213 130.456L148.355 130.876L147.873 130.929V130.93V131.627L148.005 131.582C149.473 138.325 149.797 143.971 149.133 148.347C148.45 152.844 146.738 155.935 144.225 157.554C141.72 159.169 138.296 159.399 134.01 157.902C129.721 156.405 124.628 153.196 118.873 148.034L118.543 147.737L118.209 148.031C112.275 153.253 107.077 156.482 102.732 157.981C98.3887 159.478 94.9586 159.229 92.4691 157.6C89.9716 155.965 88.2947 152.86 87.6456 148.37C86.9972 143.884 87.3867 138.083 88.9582 131.175L89.0611 130.722L88.6178 130.586C81.7534 128.473 76.5206 125.811 72.9807 122.891C69.4388 119.97 67.6334 116.828 67.506 113.748C67.3789 110.675 68.9156 107.528 72.3507 104.576C75.7888 101.62 81.0931 98.895 88.3842 96.697L88.8239 96.5645L88.7292 96.1152C87.1475 88.6124 86.947 82.6167 87.8332 78.1519C88.7189 73.69 90.6755 70.8103 93.3707 69.4189C96.0725 68.0241 99.6409 68.06 103.885 69.7037C108.127 71.3464 112.988 74.5762 118.204 79.4669L118.544 79.7853L118.886 79.4691C124.431 74.3389 129.42 71.105 133.675 69.5603C137.927 68.0163 141.392 68.176 143.971 69.7359C146.555 71.2987 148.372 74.3398 149.166 78.8216C149.959 83.301 149.717 89.1607 148.235 96.2461L148.143 96.6861L148.571 96.8242C155.303 98.999 160.484 101.591 164.01 104.395C167.539 107.202 169.354 110.173 169.491 113.111C169.629 116.039 168.106 119.087 164.615 122.067C161.123 125.047 155.711 127.914 148.213 130.456ZM122.1 83.465C125.276 86.7081 127.529 89.6047 129.93 93.1152L130.063 93.3095L130.297 93.3309C134.923 93.7519 138.642 94.372 143.349 95.4337L143.84 95.5445L143.948 95.0526C145.156 89.5185 145.538 84.8921 145.138 81.3299C144.739 77.7815 143.55 75.1889 141.512 73.8823C139.459 72.5664 136.714 72.6606 133.463 74.0892C130.207 75.5199 126.35 78.3245 121.96 82.607L121.08 83.465H122.1ZM102.375 128.806L103.371 128.908L102.854 128.051C102.288 127.112 101.801 126.367 101.343 125.666C100.36 124.162 99.5131 122.865 98.3156 120.309L97.826 119.264L97.3984 120.336C96.2181 123.295 95.8945 124.172 94.847 127.105L95.3178 127.274L95.2307 127.766C98.5009 128.345 99.5107 128.513 102.375 128.806ZM102.838 99.2298L103.375 98.3872L102.379 98.4626C100.02 98.6412 98.7343 98.9159 96.539 99.385C96.0311 99.4935 95.4746 99.6124 94.8448 99.743L94.288 99.8584L94.4737 100.396C95.4478 103.214 95.8716 104.274 97.1745 107.401L97.5825 108.381L98.0782 107.443C99.9968 103.811 100.715 102.565 102.838 99.2298ZM108.985 129.091V129.413L109.453 129.442C115.825 129.841 121.384 129.91 127.515 129.446L127.764 129.427L127.898 129.218C131.556 123.531 134.396 118.805 136.643 114.162L136.749 113.942L136.641 113.723C133.651 107.677 130.896 102.719 127.546 98.0508L127.41 97.8608L127.177 97.8437C121.221 97.405 115.889 97.3788 109.803 97.7286L109.559 97.7426L109.42 97.9437C105.982 102.922 103.252 107.866 100.332 113.715L100.219 113.941L100.335 114.166C103.132 119.618 105.79 124.189 108.985 129.091ZM141.652 127.544L142.204 127.428L142.022 126.894C141.029 123.976 140.71 123.07 139.548 120.249L139.144 119.268L138.644 120.204C136.785 123.689 136.189 124.761 134.157 127.908L134.577 128.179L134.63 128.676C137.632 128.358 138.579 128.191 141.652 127.544ZM138.796 107.447L139.269 108.379L139.698 107.426C141 104.537 141.368 103.526 142.384 100.505L142.562 99.9772L142.018 99.8572C138.98 99.1867 137.927 98.9813 134.661 98.5342L133.591 98.3878L134.171 99.2983C136.296 102.631 136.958 103.821 138.796 107.447ZM113.748 91.9797L113.109 92.8208L114.165 92.7821C117.988 92.6417 119.111 92.6348 122.81 92.78L123.861 92.8213L123.229 91.9801C121.393 89.5366 120.822 88.8406 118.809 86.6679L118.442 87.0078L118.062 86.6827C116.007 89.0855 115.436 89.761 113.748 91.9797ZM92.9079 94.9283L93.0128 95.424L93.5071 95.3125C98.2125 94.2511 102.043 93.6325 106.67 93.2113L106.905 93.19L107.038 92.9956C109.471 89.4369 111.756 86.623 115.014 83.3151L115.378 82.946L114.996 82.5958C110.435 78.4113 106.491 75.627 103.204 74.175C99.9277 72.7275 97.1964 72.5611 95.1712 73.8128C93.155 75.059 92.022 77.6002 91.6652 81.1217C91.3067 84.6593 91.717 89.3009 92.9079 94.9283ZM94.9406 113.911L95.0301 113.705L94.9359 113.501C92.9825 109.281 91.544 105.664 90.1186 101.338L89.9672 100.879L89.5028 101.015C83.6252 102.742 79.2597 104.721 76.3778 106.849C73.502 108.972 72.0217 111.309 72.1325 113.745C72.2427 116.168 73.9188 118.484 76.8622 120.59C79.8174 122.704 84.1351 124.672 89.7296 126.383L90.2038 126.528L90.3527 126.055C91.6416 121.963 93.041 118.279 94.9406 113.911ZM115.162 144.557V144.354L115.02 144.209C111.951 141.049 109.604 138.004 106.797 134.043L106.667 133.859L106.442 133.835C106.074 133.795 105.711 133.757 105.355 133.72C101.184 133.28 97.8166 132.925 93.9724 131.982L93.4922 131.864L93.369 132.343C91.8185 138.367 91.3403 143.162 91.7722 146.723C92.2037 150.28 93.5602 152.701 95.7689 153.792C97.9614 154.876 100.82 154.56 104.056 153.063C107.303 151.561 111.02 148.83 115.012 144.914L115.162 144.767V144.557V144.557ZM123.77 135.04L124.343 134.226L123.348 134.252C119.447 134.351 117.852 134.337 113.6 134.248L112.619 134.227L113.179 135.033C115.102 137.799 115.887 138.769 118.065 141.023L118.425 141.396L118.784 141.022C121.034 138.686 121.858 137.752 123.77 135.04ZM130.538 133.723L130.3 133.741L130.164 133.937C127.603 137.621 125.232 140.617 121.928 144.207L121.595 144.568L121.951 144.907C126.245 149.003 130.077 151.724 133.338 153.129C136.59 154.532 139.366 154.66 141.443 153.397C143.516 152.137 144.724 149.594 145.087 146.057C145.451 142.509 144.98 137.86 143.59 132.222L143.104 132.342L142.993 131.854C138.51 132.877 134.906 133.402 130.538 133.723ZM159.385 106.393C156.561 104.485 152.639 102.753 147.838 101.289L147.893 101.12H147.205H147.205L147.135 101.597L146.729 101.465C145.324 105.791 143.954 109.283 142.028 113.503L141.936 113.705L142.023 113.908C143.898 118.279 145.225 121.721 146.496 125.811L146.644 126.287L147.12 126.14C153.374 124.215 157.818 122.104 160.639 119.901C163.459 117.698 164.734 115.334 164.423 112.931C164.117 110.563 162.288 108.355 159.385 106.393ZM114.105 120.873C108.451 117.592 108.451 109.339 114.105 106.057C119.755 102.779 126.865 106.898 126.865 113.465C126.865 120.032 119.755 124.151 114.105 120.873ZM114.662 144.557V144.557L93.8532 132.467C87.6814 156.447 98.7879 160.129 114.662 144.557Z" fill="black" stroke="black"/>
</svg>
