<svg width="119" height="25" viewBox="0 0 119 25" fill="none" xmlns="http://www.w3.org/2000/svg">
<path opacity="0.3" d="M0.21875 24V23.2441C1.01562 23.0801 1.63672 22.9043 2.08203 22.7168C2.53906 22.5176 2.76758 22.3359 2.76758 22.1719V3.08203C2.33398 3.14062 1.90039 3.20508 1.4668 3.27539C1.04492 3.33398 0.628906 3.39844 0.21875 3.46875L0.0605469 2.37891C0.623047 2.22656 1.23242 2.08594 1.88867 1.95703C2.55664 1.82813 3.24805 1.7168 3.96289 1.62305C4.67773 1.5293 5.39844 1.45898 6.125 1.41211C6.86328 1.35352 7.58984 1.32422 8.30469 1.32422C9.57031 1.32422 10.7129 1.45898 11.7324 1.72852C12.752 1.99805 13.6191 2.39648 14.334 2.92383C15.0605 3.45117 15.6172 4.10156 16.0039 4.875C16.4023 5.64844 16.6016 6.53906 16.6016 7.54688C16.6016 8.35547 16.4844 9.09375 16.25 9.76172C16.0273 10.4297 15.7227 11.0273 15.3359 11.5547C14.9609 12.0703 14.5273 12.5215 14.0352 12.9082C13.543 13.2832 13.0273 13.5996 12.4883 13.8574C11.9609 14.1035 11.4277 14.291 10.8887 14.4199C10.3613 14.5371 9.86914 14.5957 9.41211 14.5957C8.31055 14.5957 7.36719 14.4199 6.58203 14.0684L6.17773 12.75C6.66992 12.9727 7.13867 13.1191 7.58398 13.1895C8.04102 13.248 8.47461 13.2773 8.88477 13.2773C9.42383 13.2773 9.98633 13.1719 10.5723 12.9609C11.1582 12.75 11.6973 12.4336 12.1895 12.0117C12.6816 11.5898 13.0859 11.0684 13.4023 10.4473C13.7188 9.82617 13.877 9.09961 13.877 8.26758C13.877 7.30664 13.7012 6.48047 13.3496 5.78906C13.0098 5.09766 12.541 4.53516 11.9434 4.10156C11.3457 3.65625 10.6484 3.32812 9.85156 3.11719C9.05469 2.90625 8.20508 2.80078 7.30273 2.80078C7.00977 2.80078 6.7168 2.80664 6.42383 2.81836C6.14258 2.81836 5.86133 2.82422 5.58008 2.83594V22.1719C5.58008 22.2422 5.62695 22.3184 5.7207 22.4004C5.81445 22.4824 5.97266 22.5703 6.19531 22.6641C6.42969 22.7578 6.74609 22.8516 7.14453 22.9453C7.54297 23.0391 8.04688 23.1387 8.65625 23.2441V24H0.21875ZM31.7188 7.77539C31.8242 7.8457 31.8711 8.05078 31.8594 8.39062C31.8594 8.73047 31.8125 9.12305 31.7188 9.56836C31.6367 10.0137 31.5254 10.4707 31.3848 10.9395C31.2441 11.4082 31.1035 11.8008 30.9629 12.1172H30.207C30.1367 11.6484 30.0371 11.25 29.9082 10.9219C29.7793 10.5938 29.627 10.3359 29.4512 10.1484C29.2871 9.94922 29.0996 9.80859 28.8887 9.72656C28.6895 9.63281 28.4785 9.58594 28.2559 9.58594C27.998 9.58594 27.6934 9.69727 27.3418 9.91992C27.002 10.1309 26.6504 10.4707 26.2871 10.9395C25.9238 11.3965 25.5605 11.9883 25.1973 12.7148C24.8457 13.4297 24.5293 14.2852 24.248 15.2812V22.1719C24.248 22.3477 24.4648 22.5293 24.8984 22.7168C25.3438 22.9043 26.1172 23.0801 27.2188 23.2441V24H19.1504V23.2441C19.9238 23.0684 20.5273 22.8984 20.9609 22.7344C21.3945 22.5586 21.6113 22.3711 21.6113 22.1719V11.9414C21.6113 11.5547 21.5996 11.2324 21.5762 10.9746C21.5527 10.7051 21.5234 10.4883 21.4883 10.3242C21.4531 10.1602 21.4062 10.0312 21.3477 9.9375C21.3008 9.84375 21.2539 9.76758 21.207 9.70898C21.125 9.62695 21.0312 9.5625 20.9258 9.51562C20.832 9.45703 20.7031 9.41016 20.5391 9.375C20.3867 9.33984 20.1992 9.31641 19.9766 9.30469C19.7539 9.28125 19.4785 9.25781 19.1504 9.23438V8.53125C19.9121 8.33203 20.6562 8.13281 21.3828 7.93359C22.1211 7.72266 22.7832 7.45312 23.3691 7.125L23.9844 7.74023L24.2129 11.7305C24.5293 11.0859 24.8691 10.4824 25.2324 9.91992C25.6074 9.35742 26.0059 8.87109 26.4277 8.46094C26.8496 8.03906 27.2891 7.71094 27.7461 7.47656C28.2148 7.24219 28.7012 7.125 29.2051 7.125C29.5801 7.125 29.9844 7.17188 30.418 7.26562C30.8516 7.35938 31.2852 7.5293 31.7188 7.77539ZM41.1758 8.9707C40.5664 8.9707 40.0039 9.08789 39.4883 9.32227C38.9844 9.55664 38.5332 9.89062 38.1348 10.3242C37.748 10.7461 37.4199 11.2559 37.1504 11.8535C36.8926 12.4395 36.7109 13.0898 36.6055 13.8047H44.1289C44.3984 13.8047 44.5742 13.7637 44.6562 13.6816C44.75 13.5879 44.7969 13.418 44.7969 13.1719C44.7969 12.8555 44.75 12.4629 44.6562 11.9941C44.5742 11.5137 44.3984 11.0508 44.1289 10.6055C43.8711 10.1484 43.502 9.76172 43.0215 9.44531C42.5527 9.12891 41.9375 8.9707 41.1758 8.9707ZM47.6797 14.209C47.4688 14.4434 47.1875 14.6602 46.8359 14.8594C46.4844 15.0586 46.1211 15.2344 45.7461 15.3867H36.5C36.5117 16.3008 36.6348 17.1738 36.8691 18.0059C37.1152 18.8262 37.4609 19.5527 37.9062 20.1855C38.3633 20.8066 38.9082 21.3047 39.541 21.6797C40.1855 22.0547 40.9062 22.2422 41.7031 22.2422C42.0664 22.2422 42.418 22.2188 42.7578 22.1719C43.1094 22.125 43.4844 22.0195 43.8828 21.8555C44.2812 21.6914 44.7207 21.4512 45.2012 21.1348C45.6934 20.8184 46.2676 20.3906 46.9238 19.8516C47.0762 19.9336 47.2051 20.0508 47.3105 20.2031C47.4277 20.3555 47.5156 20.4785 47.5742 20.5723C46.7891 21.4277 46.0977 22.1191 45.5 22.6465C44.9141 23.1621 44.3574 23.5605 43.8301 23.8418C43.3145 24.123 42.7988 24.3047 42.2832 24.3867C41.7793 24.4805 41.2285 24.5273 40.6309 24.5273C39.7285 24.5273 38.8672 24.334 38.0469 23.9473C37.2383 23.5605 36.5234 23.0156 35.9023 22.3125C35.2812 21.5977 34.7832 20.7422 34.4082 19.7461C34.0449 18.7383 33.8633 17.6133 33.8633 16.3711C33.8633 15.5859 33.9512 14.8125 34.127 14.0508C34.3027 13.2891 34.5547 12.5684 34.8828 11.8887C35.2227 11.209 35.6328 10.582 36.1133 10.0078C36.5938 9.43359 37.1387 8.93555 37.748 8.51367C38.0059 8.33789 38.293 8.16797 38.6094 8.00391C38.9375 7.82812 39.2773 7.67578 39.6289 7.54688C39.9805 7.41797 40.3262 7.31836 40.666 7.24805C41.0176 7.16602 41.3516 7.125 41.668 7.125C42.4297 7.125 43.1094 7.23047 43.707 7.44141C44.3047 7.65234 44.8262 7.93945 45.2715 8.30273C45.7168 8.6543 46.0918 9.07031 46.3965 9.55078C46.7012 10.0195 46.9473 10.5176 47.1348 11.0449C47.334 11.5723 47.4746 12.1113 47.5566 12.6621C47.6387 13.2012 47.6797 13.7168 47.6797 14.209ZM66.4707 8.4082C66.1191 8.49023 65.832 8.56641 65.6094 8.63672C65.3867 8.70703 65.2051 8.78906 65.0645 8.88281C64.9238 8.96484 64.8125 9.06445 64.7305 9.18164C64.6602 9.28711 64.5957 9.42773 64.5371 9.60352L59.5625 22.9629C59.457 23.2207 59.3047 23.4434 59.1055 23.6309C58.9062 23.8066 58.6895 23.9531 58.4551 24.0703C58.2207 24.1992 57.9863 24.2988 57.752 24.3691C57.5293 24.4395 57.3418 24.4922 57.1895 24.5273L51.3887 9.60352C51.2832 9.27539 51.0781 9.0293 50.7734 8.86523C50.4688 8.68945 50.0234 8.53711 49.4375 8.4082V7.65234H56.2227V8.4082C55.7656 8.4668 55.3906 8.52539 55.0977 8.58398C54.8164 8.64258 54.5938 8.71875 54.4297 8.8125C54.2773 8.89453 54.1895 9 54.166 9.12891C54.1426 9.25781 54.166 9.41602 54.2363 9.60352L58.5605 20.8711L62.6211 9.60352C62.6797 9.42773 62.6973 9.28125 62.6738 9.16406C62.6621 9.03516 62.5859 8.92969 62.4453 8.84766C62.3047 8.75391 62.0996 8.67773 61.8301 8.61914C61.5723 8.54883 61.2266 8.47852 60.793 8.4082V7.65234H66.4707V8.4082ZM68.0703 24V23.2441C68.8672 23.0801 69.4766 22.9043 69.8984 22.7168C70.3203 22.5176 70.5312 22.3359 70.5312 22.1719V12.2227C70.5312 11.625 70.5195 11.1445 70.4961 10.7812C70.4727 10.4062 70.3848 10.1191 70.2324 9.91992C70.0801 9.70898 69.834 9.55664 69.4941 9.46289C69.166 9.36914 68.6914 9.29297 68.0703 9.23438V8.53125C68.4336 8.46094 68.8145 8.37891 69.2129 8.28516C69.623 8.17969 70.0273 8.06836 70.4258 7.95117C70.8242 7.82227 71.2051 7.6875 71.5684 7.54688C71.9316 7.40625 72.2656 7.26562 72.5703 7.125H73.168V22.1719C73.168 22.3125 73.3613 22.4883 73.748 22.6992C74.1465 22.8984 74.7734 23.0801 75.6289 23.2441V24H68.0703ZM73.6953 1.83398C73.6953 2.16211 73.6426 2.47266 73.5371 2.76562C73.4316 3.05859 73.2852 3.31641 73.0977 3.53906C72.9219 3.75 72.7109 3.91992 72.4648 4.04883C72.2188 4.17773 71.9492 4.24219 71.6562 4.24219C71.1289 4.24219 70.748 4.0957 70.5137 3.80273C70.291 3.50977 70.1797 3.09375 70.1797 2.55469C70.1797 2.22656 70.2324 1.91602 70.3379 1.62305C70.4434 1.33008 70.5898 1.07812 70.7773 0.867188C70.9648 0.644531 71.1758 0.474609 71.4102 0.357422C71.6562 0.228516 71.9199 0.164062 72.2012 0.164062C73.1973 0.164062 73.6953 0.720703 73.6953 1.83398ZM85.332 8.9707C84.7227 8.9707 84.1602 9.08789 83.6445 9.32227C83.1406 9.55664 82.6895 9.89062 82.291 10.3242C81.9043 10.7461 81.5762 11.2559 81.3066 11.8535C81.0488 12.4395 80.8672 13.0898 80.7617 13.8047H88.2852C88.5547 13.8047 88.7305 13.7637 88.8125 13.6816C88.9062 13.5879 88.9531 13.418 88.9531 13.1719C88.9531 12.8555 88.9062 12.4629 88.8125 11.9941C88.7305 11.5137 88.5547 11.0508 88.2852 10.6055C88.0273 10.1484 87.6582 9.76172 87.1777 9.44531C86.709 9.12891 86.0938 8.9707 85.332 8.9707ZM91.8359 14.209C91.625 14.4434 91.3438 14.6602 90.9922 14.8594C90.6406 15.0586 90.2773 15.2344 89.9023 15.3867H80.6562C80.668 16.3008 80.791 17.1738 81.0254 18.0059C81.2715 18.8262 81.6172 19.5527 82.0625 20.1855C82.5195 20.8066 83.0645 21.3047 83.6973 21.6797C84.3418 22.0547 85.0625 22.2422 85.8594 22.2422C86.2227 22.2422 86.5742 22.2188 86.9141 22.1719C87.2656 22.125 87.6406 22.0195 88.0391 21.8555C88.4375 21.6914 88.877 21.4512 89.3574 21.1348C89.8496 20.8184 90.4238 20.3906 91.0801 19.8516C91.2324 19.9336 91.3613 20.0508 91.4668 20.2031C91.584 20.3555 91.6719 20.4785 91.7305 20.5723C90.9453 21.4277 90.2539 22.1191 89.6562 22.6465C89.0703 23.1621 88.5137 23.5605 87.9863 23.8418C87.4707 24.123 86.9551 24.3047 86.4395 24.3867C85.9355 24.4805 85.3848 24.5273 84.7871 24.5273C83.8848 24.5273 83.0234 24.334 82.2031 23.9473C81.3945 23.5605 80.6797 23.0156 80.0586 22.3125C79.4375 21.5977 78.9395 20.7422 78.5645 19.7461C78.2012 18.7383 78.0195 17.6133 78.0195 16.3711C78.0195 15.5859 78.1074 14.8125 78.2832 14.0508C78.459 13.2891 78.7109 12.5684 79.0391 11.8887C79.3789 11.209 79.7891 10.582 80.2695 10.0078C80.75 9.43359 81.2949 8.93555 81.9043 8.51367C82.1621 8.33789 82.4492 8.16797 82.7656 8.00391C83.0938 7.82812 83.4336 7.67578 83.7852 7.54688C84.1367 7.41797 84.4824 7.31836 84.8223 7.24805C85.1738 7.16602 85.5078 7.125 85.8242 7.125C86.5859 7.125 87.2656 7.23047 87.8633 7.44141C88.4609 7.65234 88.9824 7.93945 89.4277 8.30273C89.873 8.6543 90.248 9.07031 90.5527 9.55078C90.8574 10.0195 91.1035 10.5176 91.291 11.0449C91.4902 11.5723 91.6309 12.1113 91.7129 12.6621C91.7949 13.2012 91.8359 13.7168 91.8359 14.209ZM118.291 8.4082C117.928 8.49023 117.641 8.57227 117.43 8.6543C117.219 8.72461 117.049 8.80078 116.92 8.88281C116.803 8.95312 116.715 9.04102 116.656 9.14648C116.609 9.24023 116.568 9.35742 116.533 9.49805L112.648 22.9629C112.578 23.2207 112.438 23.4434 112.227 23.6309C112.027 23.8066 111.805 23.9531 111.559 24.0703C111.312 24.1992 111.066 24.2988 110.82 24.3691C110.586 24.4395 110.393 24.4922 110.24 24.5273L106.057 12.6094L102.453 22.9629C102.359 23.2324 102.213 23.4609 102.014 23.6484C101.826 23.8242 101.615 23.9707 101.381 24.0879C101.146 24.2168 100.912 24.3105 100.678 24.3691C100.455 24.4395 100.268 24.4922 100.115 24.5273L95.5098 9.49805C95.4043 9.04102 94.7656 8.67773 93.5938 8.4082V7.65234H100.379V8.4082C99.8047 8.4668 99.3594 8.53711 99.043 8.61914C98.7266 8.68945 98.498 8.77734 98.3574 8.88281C98.2168 8.97656 98.1406 9.07617 98.1289 9.18164C98.1289 9.28711 98.1465 9.39258 98.1816 9.49805L101.486 20.6602L105.811 7.65234H107.023L111.594 20.6602L114.635 9.49805C114.705 9.22852 114.582 9.01172 114.266 8.84766C113.949 8.68359 113.387 8.53711 112.578 8.4082V7.65234H118.291V8.4082Z" fill="black"/>
</svg>
