<svg width="170" height="170" viewBox="0 0 170 170" fill="none" xmlns="http://www.w3.org/2000/svg">
<path d="M85 70.8382C76.6434 70.8382 69.8381 77.6435 69.8381 86.0001C69.8381 94.3566 76.6434 101.162 85 101.162C93.3566 101.162 100.162 94.3566 100.162 86.0001C100.162 77.6435 93.3566 70.8382 85 70.8382ZM42.5531 116.133L39.2063 115.304C14.3012 108.993 0 98.3144 0 85.9735C0 73.6326 14.3066 62.9544 39.2063 56.6432L42.5531 55.8144L43.4934 59.1347C46.0199 67.8314 49.2499 76.308 53.1516 84.4807L53.8688 85.9735L53.1516 87.4929C49.2418 95.662 46.0115 104.139 43.4934 112.839L42.5531 116.133ZM37.6603 64.3888C18.7319 69.7013 7.11344 77.8613 7.11344 85.9735C7.11344 94.0857 18.7372 102.214 37.6603 107.558C39.98 100.188 42.7804 92.9775 46.0434 85.9735C42.7758 78.9715 39.9753 71.7608 37.6603 64.3888V64.3888ZM127.447 116.133L126.507 112.812C123.984 104.123 120.754 95.6546 116.848 87.4929L116.131 85.9735L116.848 84.4541C120.758 76.285 123.989 67.8077 126.507 59.1082L127.447 55.8144L130.794 56.6432C155.699 62.9544 170 73.6326 170 85.9735C170 98.3144 155.693 108.993 130.794 115.304L127.447 116.133ZM123.957 85.9735C127.23 92.9728 130.031 100.184 132.34 107.558C151.295 102.219 162.887 94.0857 162.887 85.9735C162.887 77.8613 151.263 69.7332 132.34 64.3888C130.015 71.7572 127.214 78.9673 123.957 85.9735ZM37.6019 64.3622L36.6616 61.0419C29.6597 36.3601 31.79 18.6535 42.5 12.4804C53.0134 6.41881 69.8647 13.5854 87.5447 31.7382L89.9512 34.2032L87.5447 36.6682C81.2661 43.2006 75.5292 50.2327 70.3906 57.6951L69.4237 59.0497L67.7609 59.1879C58.7216 59.9014 49.7549 61.3458 40.9488 63.5069L37.6019 64.3622ZM51.0478 17.4104C49.1406 17.4104 47.4513 17.7982 46.0381 18.6269C39.0097 22.6963 37.7666 36.8063 42.6063 55.841C50.1577 54.1518 57.8117 52.9593 65.5191 52.271C69.9564 45.9512 74.8085 39.933 80.0434 34.2563C69.0041 23.4932 58.5438 17.4051 51.0478 17.4051V17.4104ZM118.979 161.618C118.952 161.618 118.952 161.618 118.979 161.618C108.88 161.618 95.9012 154.037 82.4553 140.203L80.0487 137.738L82.4553 135.273C88.7339 128.741 94.4708 121.709 99.6094 114.247L100.55 112.892L102.212 112.727C111.263 112.038 120.241 110.593 129.051 108.408L132.398 107.579L133.338 110.9C140.34 135.582 138.21 153.262 127.5 159.429C124.911 160.918 121.965 161.672 118.979 161.613V161.618ZM89.9512 137.685C100.991 148.448 111.451 154.537 118.947 154.537H118.973C120.854 154.537 122.543 154.122 123.957 153.32C130.985 149.251 132.26 135.141 127.388 116.106C119.838 117.797 112.184 118.981 104.476 119.649C100.039 125.978 95.1864 132.005 89.9512 137.691V137.685ZM132.398 64.3622L129.051 63.5069C120.235 61.353 111.26 59.9087 102.212 59.1879L100.55 59.0497L99.6094 57.6951C94.4708 50.2327 88.7339 43.2006 82.4553 36.6682L80.0487 34.2032L82.4553 31.7382C100.135 13.5854 116.987 6.41881 127.5 12.4804C138.21 18.6482 140.34 36.3601 133.338 61.0419L132.398 64.3622ZM104.481 52.271C112.189 52.9574 119.843 54.15 127.394 55.841C132.265 36.8063 130.99 22.691 123.962 18.6269C116.96 14.5894 103.79 20.7838 89.9566 34.2616C95.1774 39.9505 100.029 45.9677 104.481 52.2763V52.271ZM51.0478 161.618C48.0569 161.671 45.0978 160.928 42.5 159.435C31.79 153.267 29.6597 135.582 36.6616 110.905L37.6019 107.585L40.9488 108.413C49.1406 110.491 58.1613 111.925 67.7609 112.733L69.4237 112.897L70.3641 114.252C75.5026 121.714 81.2396 128.746 87.5181 135.279L89.9247 137.744L87.5181 140.209C74.0988 154.043 61.1203 161.624 51.0478 161.624V161.618ZM42.6116 116.106C37.74 135.141 39.015 149.256 46.0434 153.32C53.0453 157.304 66.1884 151.163 80.0487 137.685C74.8136 132 69.9614 125.973 65.5244 119.644C57.816 118.977 50.1612 117.794 42.6116 116.101V116.106ZM85 120.558C79.1616 120.558 73.185 120.308 67.1819 119.809L65.5191 119.671L64.5522 118.289C61.1613 113.417 57.9763 108.405 55.0056 103.266C52.0288 98.1262 49.2692 92.864 46.7341 87.4929L46.0169 85.9735L46.7341 84.4541C51.813 73.7143 57.7727 63.4135 64.5522 53.6576L65.5191 52.2763L67.1819 52.1382C79.0396 51.1394 90.9604 51.1394 102.818 52.1382L104.481 52.2763L105.448 53.6576C112.236 63.408 118.196 73.7094 123.266 84.4541L123.983 85.9735L123.266 87.4929C118.206 98.2429 112.246 108.545 105.448 118.289L104.481 119.671L102.818 119.809C96.8917 120.305 90.9472 120.555 85 120.558V120.558ZM69.4503 112.865C79.9106 113.668 90.0894 113.668 100.576 112.865C106.425 104.301 111.623 95.3102 116.126 85.9682C111.642 76.6108 106.434 67.6177 100.55 59.071C90.1987 58.2688 79.8013 58.2688 69.4503 59.071C63.562 67.6151 58.3539 76.6085 53.8741 85.9682C58.3786 95.3148 63.5857 104.306 69.4503 112.865V112.865Z" fill="black"/>
</svg>
