<svg width="170" height="170" viewBox="0 0 170 170" fill="none" xmlns="http://www.w3.org/2000/svg">
<g clip-path="url(#clip0)">
<path d="M84.9928 0C83.6045 0 82.2161 0.354167 80.9695 1.08375L14.3507 39.525C13.1278 40.2302 12.1122 41.245 11.4059 42.4673C10.6997 43.6896 10.3277 45.0763 10.3274 46.4879V123.463C10.3274 126.338 11.8574 128.995 14.3507 130.432L55.342 154.119V102.099H33.6316V88.3362H92.7207V102.099H71.0103V163.172L80.9695 168.923C83.4557 170.361 86.5228 170.361 89.0161 168.923L105.428 159.446C101.855 156.825 98.9546 153.395 96.9636 149.437L109.721 142.056C112.278 146.235 115.43 149.565 120.204 150.91L135.603 142.014C134.704 137.99 130.659 136.184 124.383 133.443L120.466 131.757C109.161 126.94 101.66 120.905 101.66 108.141C101.66 96.3971 110.62 87.4438 124.61 87.4438C134.569 87.4438 141.73 90.9146 146.88 99.9813L134.675 107.808C131.991 102.992 129.079 101.093 124.61 101.093C120.02 101.093 117.102 103.998 117.102 107.808C117.102 112.505 120.02 114.41 126.735 117.321L130.652 119C140.115 123.059 146.625 127.181 149.607 133.925L155.649 130.432C158.142 128.995 159.672 126.338 159.672 123.463V46.5021C159.672 43.6263 158.142 40.9629 155.649 39.5321L89.0161 1.08375C87.7937 0.374893 86.4059 0.00106501 84.9928 0V0Z" fill="black"/>
</g>
<defs>
<clipPath id="clip0">
<rect width="170" height="170" fill="white"/>
</clipPath>
</defs>
</svg>
