<svg width="170" height="170" viewBox="0 0 170 170" fill="none" xmlns="http://www.w3.org/2000/svg">
<path d="M117.805 34.8633L117.871 34.8301H117.904L85 15.9375L52.1123 34.8301H52.0791L52.1953 34.8799L25.1514 50.4688V119.531L85 154.062L144.849 119.531V50.4688L117.805 34.8633ZM80.1357 140.051L56.3789 126.338V103.162L34.8633 90.9434V61.9072L80.1357 88.0215V140.051ZM39.5449 53.374L61.9072 40.458L84.9668 53.6895L108.06 40.4248L130.505 53.374L85.0332 79.6045L39.5449 53.374ZM135.137 91.0264L113.754 103.162V126.255L89.8643 140.034V88.0547L135.137 61.9404V91.0264Z" fill="black"/>
</svg>
