<svg width="170" height="170" viewBox="0 0 170 170" fill="none" xmlns="http://www.w3.org/2000/svg">
<path d="M85 14.1667C45.9425 14.1667 14.1667 45.9425 14.1667 85V114.346C14.1667 121.6 20.5204 127.5 28.3334 127.5H35.4167C37.2953 127.5 39.097 126.754 40.4254 125.425C41.7537 124.097 42.5 122.295 42.5 120.417V83.9871C42.5 82.1085 41.7537 80.3068 40.4254 78.9784C39.097 77.65 37.2953 76.9038 35.4167 76.9038H28.985C32.9234 49.4913 56.5109 28.3334 85 28.3334C113.489 28.3334 137.077 49.4913 141.015 76.9038H134.583C132.705 76.9038 130.903 77.65 129.575 78.9784C128.246 80.3068 127.5 82.1085 127.5 83.9871V127.5C127.5 135.313 121.146 141.667 113.333 141.667H99.1667V134.583H70.8334V155.833H113.333C128.959 155.833 141.667 143.126 141.667 127.5C149.48 127.5 155.833 121.6 155.833 114.346V85C155.833 45.9425 124.058 14.1667 85 14.1667Z" fill="black"/>
</svg>
