<svg width="30" height="30" viewBox="0 0 30 30" fill="none" xmlns="http://www.w3.org/2000/svg">
<path d="M7.51666 16.8995H8.73333V22.9161H9.9V16.8995H11.1167V15.8828H7.51666V16.8995Z" fill="white"/>
<path d="M13.6667 21.6668C13.4667 21.9001 12.7833 22.3668 12.7833 21.7001V17.7168H11.75V22.0668C11.75 23.3835 13.0667 23.0335 13.6833 22.3501V22.9168H14.7167V17.7168H13.6833V21.6668H13.6667V21.6668Z" fill="white"/>
<path d="M17.5167 17.6829C16.9167 17.6829 16.5333 18.1329 16.5333 18.1329V15.8662H15.4833V22.9162H16.5333V22.5162C16.5333 22.5162 16.8833 22.9829 17.5167 22.9829C18.0667 22.9829 18.4833 22.4995 18.4833 21.8329V18.9495C18.4833 18.1662 18.1167 17.6829 17.5167 17.6829V17.6829ZM17.4 21.6995C17.4 22.0829 17.1333 22.2662 16.7833 22.1162C16.6888 22.072 16.6039 22.0097 16.5333 21.9329V18.6995C16.6 18.6329 16.6833 18.5829 16.75 18.5329C17.1167 18.3495 17.4 18.6329 17.4 19.0162V21.6995V21.6995Z" fill="white"/>
<path d="M21.25 21.434C21.25 21.834 21.0334 22.1006 20.7834 22.1173C20.5167 22.134 20.25 21.9173 20.25 21.434V20.4506H22.2333V19.1173C22.2384 18.9143 22.2027 18.7123 22.1283 18.5233C22.0538 18.3344 21.9422 18.1623 21.8 18.0173C21.5133 17.7558 21.1381 17.6128 20.75 17.6173C20.3834 17.6173 20 17.734 19.7 17.9673C19.3834 18.2173 19.1833 18.6006 19.1833 19.1173V21.4506C19.1833 21.9173 19.3334 22.284 19.5667 22.5506C19.85 22.8506 20.2334 23.0173 20.6334 23.034C21.1167 23.0506 21.6333 22.8506 21.9333 22.434C22.1167 22.184 22.2333 21.8506 22.2333 21.4506V21.184H21.25V21.434V21.434ZM20.25 19.1173C20.25 18.834 20.4167 18.5006 20.7334 18.5006C21.05 18.5006 21.25 18.8006 21.25 19.1173V19.6506H20.25V19.1173V19.1173Z" fill="white"/>
<path d="M15 2.3168e-08C13.0301 0.000109429 11.0794 0.388226 9.25949 1.14219C7.43955 1.89615 5.78593 3.0012 4.39305 4.39423C3.00017 5.78727 1.89531 7.44101 1.14155 9.26103C0.38779 11.0811 -0.000109412 13.0317 2.3149e-08 15.0017C0.000109458 16.9716 0.388226 18.9222 1.14219 20.7422C1.89615 22.5621 3.0012 24.2157 4.39423 25.6086C5.78726 27.0015 7.44101 28.1064 9.26103 28.8601C11.0811 29.6139 13.0317 30.0018 15.0017 30.0017C18.9801 30.0014 22.7956 28.4208 25.6086 25.6074C28.4217 22.7941 30.0019 18.9785 30.0017 15C30.0014 11.0215 28.4208 7.2061 25.6074 4.39305C22.7941 1.58001 18.9785 -0.000220931 15 2.3168e-08V2.3168e-08ZM17.6333 5.61667H18.9667V10.0833C18.9667 10.3667 19.1 10.3667 19.15 10.3667C19.35 10.3667 19.65 10.15 19.8 10V5.6H21.1333V11.5H19.8V10.9833C19.6167 11.15 19.4333 11.2833 19.25 11.3833C19 11.5167 18.7667 11.5667 18.5333 11.5667C18.4056 11.5728 18.2781 11.5506 18.1599 11.5016C18.0418 11.4526 17.9359 11.3781 17.85 11.2833C17.7 11.1 17.6333 10.8167 17.6333 10.4667V5.61667ZM13.3833 7.16667C13.3833 6.25 14.1333 5.5 15.05 5.5C15.9667 5.5 16.7167 6.25 16.7167 7.16667V10C16.7167 10.9167 15.9667 11.6667 15.05 11.6667C14.1333 11.6667 13.3833 10.9167 13.3833 10V7.16667ZM9.91667 3.58333L10.7167 6.51667L11.5333 3.58333H13.05L11.4833 8.21667V11.5H10V8.21667L8.4 3.58333H9.91667V3.58333ZM23.0833 24.4833C22.2333 25.3167 15.0333 25.3333 15.0333 25.3333C15.0333 25.3333 7.85 25.3167 6.98333 24.4833C6.13333 23.65 6.13333 19.5 6.13333 19.4667C6.13333 19.45 6.13333 15.3 6.98333 14.45C7.83333 13.6167 15.0333 13.6 15.0333 13.6C15.0333 13.6 22.2167 13.6167 23.0833 14.45C23.9333 15.2833 23.95 19.4333 23.95 19.4667C23.95 19.4667 23.95 23.6333 23.0833 24.4833Z" fill="white"/>
<path d="M15.0167 10.583C15.3 10.583 15.4334 10.4163 15.45 10.1497V6.98301C15.45 6.76634 15.2334 6.58301 15.0334 6.58301C14.8334 6.58301 14.6167 6.74967 14.6167 6.98301V10.1497C14.6167 10.3997 14.7334 10.5663 15.0167 10.583Z" fill="white"/>
</svg>
