<?xml version="1.0" encoding="UTF-8" standalone="no"?>
<svg
   xmlns:dc="http://purl.org/dc/elements/1.1/"
   xmlns:cc="http://creativecommons.org/ns#"
   xmlns:rdf="http://www.w3.org/1999/02/22-rdf-syntax-ns#"
   xmlns:svg="http://www.w3.org/2000/svg"
   xmlns="http://www.w3.org/2000/svg"
   xmlns:sodipodi="http://sodipodi.sourceforge.net/DTD/sodipodi-0.dtd"
   xmlns:inkscape="http://www.inkscape.org/namespaces/inkscape"
   width="320"
   height="320"
   viewBox="0 0 84.666664 84.666672"
   version="1.1"
   id="svg4002"
   inkscape:version="1.0.2 (e86c8708, 2021-01-15)"
   sodipodi:docname="logo-black_t.svg">
  <defs
     id="defs3996" />
  <sodipodi:namedview
     id="base"
     pagecolor="#ffffff"
     bordercolor="#666666"
     borderopacity="1.0"
     inkscape:pageopacity="0.0"
     inkscape:pageshadow="2"
     inkscape:zoom="1.4"
     inkscape:cx="105.4756"
     inkscape:cy="202.11188"
     inkscape:document-units="mm"
     inkscape:current-layer="layer1"
     showgrid="true"
     units="px"
     inkscape:window-width="1380"
     inkscape:window-height="847"
     inkscape:window-x="0"
     inkscape:window-y="25"
     inkscape:window-maximized="0"
     inkscape:document-rotation="0">
    <inkscape:grid
       type="xygrid"
       id="grid4879" />
  </sodipodi:namedview>
  <metadata
     id="metadata3999">
    <rdf:RDF>
      <cc:Work
         rdf:about="">
        <dc:format>image/svg+xml</dc:format>
        <dc:type
           rdf:resource="http://purl.org/dc/dcmitype/StillImage" />
        <dc:title></dc:title>
      </cc:Work>
    </rdf:RDF>
  </metadata>
  <g
     inkscape:label="Layer 1"
     inkscape:groupmode="layer"
     id="layer1"
     transform="translate(0,-212.33332)">
    <flowRoot
       xml:space="preserve"
       id="flowRoot4008"
       style="font-style:normal;font-weight:normal;font-size:40px;line-height:1.25;font-family:sans-serif;letter-spacing:0px;word-spacing:0px;fill:#000000;fill-opacity:1;stroke:none"
       transform="matrix(0.26458333,0,0,0.26458333,0,193.8125)"><flowRegion
         id="flowRegion4010"><rect
           id="rect4012"
           width="19.192898"
           height="52.527931"
           x="126.26907"
           y="223.2233" /></flowRegion><flowPara
         id="flowPara4014" /></flowRoot>
    <g
       id="g4877"
       transform="matrix(1.1829451,0,0,1.1829451,-43.321433,-22.967947)">
      <path
         inkscape:connector-curvature="0"
         id="path4018-4-6"
         d="m 63.211659,239.17108 c -3.108317,-0.5403 -5.808768,-2.05457 -8.124405,-4.55573 -5.04085,-5.44472 -4.822222,-13.77551 0.501221,-19.09895 7.395721,-7.39572 20.006099,-4.49015 23.406437,5.39309 3.386291,9.84243 -5.443657,20.05889 -15.783253,18.26159 z"
         style="fill:#51b7c3;fill-opacity:1;stroke-width:0.26727" />
      <path
         inkscape:connector-curvature="0"
         id="path4018-4"
         d="m 70.171411,239.17109 c -3.108317,-0.5403 -5.808768,-2.05457 -8.124404,-4.55573 -5.04085,-5.44472 -4.822222,-13.77551 0.501221,-19.09895 7.39572,-7.39572 20.006098,-4.49015 23.406436,5.39309 3.386289,9.84243 -5.443657,20.05889 -15.783253,18.26159 z"
         style="fill:#70d6e3;fill-opacity:0.627451;stroke-width:0.26727" />
    </g>
    <g
       aria-label=")"
       transform="scale(0.97926995,1.0211689)"
       id="text46"
       style="font-style:normal;font-variant:normal;font-weight:200;font-stretch:normal;font-size:56.6308px;line-height:1.25;font-family:'Helvetica Neue';-inkscape-font-specification:'Helvetica Neue Ultra-Light';fill:#000000;stroke-width:0.589904">
      <path
         d="m 64.699746,272.6582 q 3.56774,-6.00287 5.379926,-12.62867 1.868816,-6.68244 1.868816,-13.70466 0,-6.79569 -1.755554,-13.19497 -1.755555,-6.45591 -5.323296,-12.28888 h 1.925448 q 3.454478,5.66307 5.379925,12.17562 1.925448,6.51254 1.925448,13.30823 0,6.96559 -1.925448,13.64803 -1.925447,6.68243 -5.493187,12.6853 h -1.982078 z"
         style="font-style:normal;font-variant:normal;font-weight:200;font-stretch:normal;font-family:'Helvetica Neue';-inkscape-font-specification:'Helvetica Neue Ultra-Light';fill:#000000;stroke-width:0.589904"
         id="path44" />
    </g>
    <g
       aria-label="Simple2B"
       id="text29"
       style="font-size:14.1111px;line-height:1.25;font-family:'Helvetica Neue';-inkscape-font-specification:'Helvetica Neue';fill:#000000;stroke-width:0.264583">
      <path
         d="M 9.7633714,266.25039 H 11.03337 q -0.02822,-0.83256 -0.324555,-1.42522 -0.282222,-0.60678 -0.7902215,-1.00189 -0.4938885,-0.39511 -1.1571102,-0.57855 -0.6632217,-0.18345 -1.4393322,-0.18345 -0.6914439,0 -1.3546656,0.18345 -0.6491106,0.16933 -1.1712213,0.53622 -0.5079997,0.35277 -0.8184439,0.91722 -0.3104442,0.55033 -0.3104442,1.31233 0,0.69144 0.2681109,1.15711 0.282222,0.45156 0.7337772,0.74789 0.4656664,0.28222 1.0442215,0.46567 0.5785551,0.16933 1.1712213,0.31044 0.6067773,0.127 1.1853324,0.254 0.5785551,0.127 1.0301103,0.33867 0.4656663,0.19755 0.7337772,0.52211 0.2822221,0.32455 0.2822221,0.84666 0,0.55034 -0.2257777,0.90311 -0.2257776,0.35278 -0.5926662,0.56445 -0.3668886,0.19755 -0.8325549,0.28222 -0.4515552,0.0847 -0.9031104,0.0847 -0.564444,0 -1.1006658,-0.14111 -0.5362218,-0.14112 -0.9454437,-0.43745 -0.3951108,-0.29633 -0.6491106,-0.74789 -0.2398888,-0.46566 -0.2398888,-1.10066 h -1.269999 q 0,0.91722 0.3245553,1.59455 0.3386664,0.66322 0.9031104,1.10067 0.5785552,0.42333 1.3264435,0.635 0.7619994,0.21166 1.6086654,0.21166 0.6914439,0 1.3828878,-0.16933 0.705555,-0.15522 1.2699987,-0.508 0.564444,-0.36689 0.917222,-0.93133 0.366888,-0.57856 0.366888,-1.38289 0,-0.74789 -0.282222,-1.24178 -0.26811,-0.49389 -0.733777,-0.81844 -0.451555,-0.32456 -1.0301101,-0.508 -0.5785551,-0.19756 -1.1853324,-0.33867 -0.5926662,-0.14111 -1.1712213,-0.254 -0.5785551,-0.127 -1.0442214,-0.31044 -0.4515552,-0.18345 -0.7337772,-0.46567 -0.2681109,-0.29633 -0.2681109,-0.762 0,-0.49389 0.1834443,-0.81844 0.1975554,-0.33867 0.5079996,-0.53622 0.3245553,-0.19756 0.7337772,-0.28222 0.4092219,-0.0847 0.8325549,-0.0847 1.0442214,0 1.7074431,0.49389 0.6773328,0.47978 0.7902216,1.56633 z"
         style="fill:#000000;stroke-width:0.264583"
         id="path47" />
      <path
         d="m 14.158097,264.76872 v -1.46755 h -1.199443 v 1.46755 z m -1.199443,1.31234 v 7.29544 h 1.199443 v -7.29544 z"
         style="fill:#000000;stroke-width:0.264583"
         id="path49" />
      <path
         d="m 16.030023,266.08106 v 7.29544 h 1.199444 v -4.54378 q 0,-0.21167 0.09878,-0.52211 0.112889,-0.32455 0.338667,-0.62089 0.239888,-0.29633 0.606777,-0.508 0.381,-0.21166 0.90311,-0.21166 0.409222,0 0.663222,0.127 0.268111,0.11288 0.423333,0.33866 0.155222,0.21167 0.211667,0.508 0.07055,0.29633 0.07055,0.64911 v 4.78367 h 1.199444 v -4.54378 q 0,-0.84666 0.507999,-1.35466 0.508,-0.508 1.396999,-0.508 0.437444,0 0.705555,0.127 0.282222,0.127 0.437444,0.35277 0.155222,0.21167 0.211667,0.508 0.05644,0.29634 0.05644,0.635 v 4.78367 h 1.199444 v -5.34811 q 0,-0.56445 -0.183445,-0.95956 -0.169333,-0.40922 -0.493888,-0.66322 -0.310444,-0.254 -0.762,-0.36689 -0.437444,-0.127 -0.987777,-0.127 -0.719666,0 -1.326443,0.32456 -0.592666,0.32455 -0.959555,0.91722 -0.225777,-0.67733 -0.77611,-0.95955 -0.550333,-0.28223 -1.227666,-0.28223 -1.53811,0 -2.356554,1.24178 h -0.02822 v -1.07244 z"
         style="fill:#000000;stroke-width:0.264583"
         id="path51" />
      <path
         d="m 28.116401,266.08106 v 10.07532 h 1.199443 v -3.75355 h 0.02822 q 0.197555,0.32455 0.479777,0.55033 0.296333,0.21167 0.620888,0.33867 0.324556,0.127 0.649111,0.18344 0.338666,0.0564 0.606777,0.0564 0.832555,0 1.453444,-0.29634 0.634999,-0.29633 1.044221,-0.80433 0.423333,-0.52211 0.620888,-1.21355 0.211667,-0.69145 0.211667,-1.46756 0,-0.77611 -0.211667,-1.46755 -0.211666,-0.69145 -0.634999,-1.21356 -0.409222,-0.53622 -1.044222,-0.84666 -0.620888,-0.31045 -1.467554,-0.31045 -0.761999,0 -1.396999,0.28223 -0.634999,0.26811 -0.931332,0.87488 h -0.02822 v -0.98777 z m 5.64444,3.58422 q 0,0.53622 -0.112889,1.04422 -0.112889,0.508 -0.366889,0.90311 -0.253999,0.39511 -0.677332,0.635 -0.409222,0.23989 -1.030111,0.23989 -0.620888,0 -1.058332,-0.22578 -0.437444,-0.23989 -0.719666,-0.62089 -0.268111,-0.381 -0.395111,-0.87489 -0.127,-0.508 -0.127,-1.04422 0,-0.508 0.112889,-1.00189 0.127,-0.49389 0.395111,-0.87489 0.268111,-0.39511 0.691444,-0.635 0.423333,-0.23988 1.03011,-0.23988 0.578555,0 1.001888,0.22577 0.437444,0.22578 0.705555,0.60678 0.282222,0.381 0.409222,0.87489 0.141111,0.47978 0.141111,0.98778 z"
         style="fill:#000000;stroke-width:0.264583"
         id="path53" />
      <path
         d="M 36.523087,263.30117 V 273.3765 H 37.72253 V 263.30117 Z"
         style="fill:#000000;stroke-width:0.264583"
         id="path55" />
      <path
         d="m 44.660342,269.03028 h -4.190997 q 0.02822,-0.42334 0.183445,-0.79023 0.155222,-0.38099 0.423333,-0.66322 0.26811,-0.28222 0.634999,-0.43744 0.381,-0.16933 0.846666,-0.16933 0.451555,0 0.818444,0.16933 0.381,0.15522 0.649111,0.43744 0.282222,0.26811 0.437444,0.64911 0.169333,0.381 0.197555,0.80434 z m 1.15711,2.03199 H 44.63212 q -0.155222,0.71967 -0.649111,1.07245 -0.479777,0.35278 -1.241777,0.35278 -0.592666,0 -1.03011,-0.19756 -0.437444,-0.19755 -0.719666,-0.52211 -0.282222,-0.33867 -0.409222,-0.762 -0.127,-0.43744 -0.112889,-0.91722 h 5.460996 q 0.02822,-0.66322 -0.127,-1.397 -0.141111,-0.73378 -0.536222,-1.35467 -0.380999,-0.62088 -1.03011,-1.01599 -0.634999,-0.40923 -1.608665,-0.40923 -0.747889,0 -1.382888,0.28223 -0.620889,0.28222 -1.086555,0.79022 -0.451555,0.508 -0.705555,1.19944 -0.254,0.69144 -0.254,1.524 0.02822,0.83255 0.239889,1.53811 0.225778,0.70555 0.663222,1.21355 0.437444,0.508 1.072443,0.79023 0.649111,0.28222 1.523999,0.28222 1.241777,0 2.060221,-0.62089 0.818444,-0.62089 1.058332,-1.84856 z"
         style="fill:#000000;stroke-width:0.264583"
         id="path57" />
      <path
         d="m 46.89144,266.91361 h 1.199443 q -0.01411,-0.45155 0.08467,-0.889 0.112889,-0.45155 0.352777,-0.80433 0.239889,-0.35278 0.606778,-0.56444 0.380999,-0.22578 0.90311,-0.22578 0.395111,0 0.747888,0.127 0.352778,0.127 0.606778,0.36689 0.26811,0.23989 0.423333,0.57855 0.155222,0.32456 0.155222,0.73378 0,0.52211 -0.169334,0.91722 -0.155222,0.39511 -0.479777,0.73378 -0.310444,0.33866 -0.790222,0.67733 -0.479777,0.32456 -1.114776,0.71967 -0.522111,0.31044 -1.001889,0.66322 -0.479777,0.35278 -0.860777,0.81844 -0.380999,0.46567 -0.634999,1.10067 -0.239889,0.62089 -0.310444,1.50989 h 6.533439 v -1.05834 h -5.13644 q 0.08467,-0.46566 0.352777,-0.81844 0.282222,-0.36689 0.663222,-0.67733 0.395111,-0.31045 0.860777,-0.57856 0.465666,-0.28222 0.931332,-0.56444 0.465667,-0.29634 0.903111,-0.62089 0.437444,-0.32456 0.77611,-0.71967 0.338667,-0.40922 0.536222,-0.91722 0.211667,-0.508 0.211667,-1.17122 0,-0.70556 -0.254,-1.24178 -0.239889,-0.53622 -0.663222,-0.889 -0.423333,-0.36688 -1.001888,-0.55033 -0.564444,-0.19755 -1.213555,-0.19755 -0.790221,0 -1.41111,0.26811 -0.620888,0.26811 -1.044221,0.74788 -0.409222,0.46567 -0.606777,1.11478 -0.197556,0.64911 -0.155222,1.41111 z"
         style="fill:#000000;stroke-width:0.264583"
         id="path59" />
      <path
         d="m 56.566584,267.63328 v -3.20322 h 2.681109 q 0.437444,0 0.818444,0.0564 0.395111,0.0423 0.691444,0.21167 0.296333,0.16933 0.465666,0.47978 0.169333,0.31044 0.169333,0.84666 0,0.80433 -0.507999,1.21356 -0.493889,0.39511 -1.636888,0.39511 z m -1.340554,-4.33211 v 10.07533 h 4.868329 q 0.747889,0 1.312333,-0.23989 0.578555,-0.254 0.959554,-0.64911 0.395111,-0.40923 0.592667,-0.93134 0.197555,-0.52211 0.197555,-1.07244 0,-0.93133 -0.493889,-1.58044 -0.493888,-0.64911 -1.425221,-0.84667 v -0.0282 q 0.719666,-0.28222 1.100666,-0.86078 0.395111,-0.59266 0.395111,-1.397 0,-0.762 -0.352778,-1.28411 -0.338666,-0.52211 -0.832554,-0.81844 -0.225778,-0.14111 -0.550333,-0.21167 -0.310445,-0.0706 -0.677333,-0.0988 -0.366889,-0.0423 -0.747888,-0.0423 -0.366889,-0.0141 -0.691444,-0.0141 z m 1.340554,8.94644 v -3.48544 h 3.062109 q 0.423333,0 0.818444,0.0847 0.395111,0.0706 0.691444,0.26811 0.310444,0.18345 0.493888,0.508 0.183444,0.32456 0.183444,0.81845 0,0.84666 -0.507999,1.32644 -0.493889,0.47978 -1.382888,0.47978 z"
         style="fill:#000000;stroke-width:0.264583"
         id="path61" />
    </g>
  </g>
</svg>
